<svg xmlns="http://www.w3.org/2000/svg" width="3000" height="3000" viewBox="0 0 3000 3000"><defs><style>.cls-1{fill:#b994ff;}.cls-2{fill:#ff8080;}.cls-3{fill:#b6ffd3;}.cls-4{fill:#ffb3c5;}.cls-5{fill:#ff83a6;}.cls-6{fill:#cadeff;}.cls-7{fill:#8fafff;}.cls-8{fill:#ffd894;}.cls-9{fill:#003472;}</style></defs><title>sleeping</title><g id="fill"><g id="_Group_" data-name="&lt;Group&gt;"><path class="cls-1" d="M2069.86,826.55c13.35,6.15,22,23.45,15.89,36.76-8,17.38-13.75,14.76-21.78,32.14s-4.62,18.94-12.65,36.33-10.87,16.07-18.91,33.45-3.49,19.49-11.53,36.87-9.75,16.62-17.78,34-10.15,16.4-18.18,33.78-9.24,16.8-17.27,34.18-7,17.89-15,35.27-3.45,19.53-11.49,36.91-10,16.47-18,33.85-7.93,17.45-16,34.87-4.8,19.6-18,33.49c-10.87-6.51-22.58-9.05-33.93-14.73s-20.58-15.93-32.36-20.73-23.6-9.93-35.71-13.82-24.84-5.89-37.24-8.8-25.38-2.22-38-4.18-24.65-7.71-37.38-8.69c-12.55-.95-25.45,2-38.25,2-18.29,0-18.29-3.67-36.58-3.67s-18.29,5-36.58,5-18.33,2-36.62,2-18.69.15-36.51-4c-19.85-4.62-19.34-6.51-37.85-15.05s-17.6-10.51-36.11-19.09-19.45-6.51-38-15.05c-13.35-6.15-18-23.53-11.89-36.87,8-17.42,4.84-18.87,12.91-36.29s8.29-17.31,16.33-34.73,12.36-15.42,20.44-32.84,6.62-18.07,14.65-35.49,10.69-16.22,18.76-33.64,4-19.31,12-36.73,12.33-15.45,20.4-32.87S1489,862.41,1497,845s6.29-18.22,14.33-35.64,5.67-18.54,13.71-36,11.67-15.74,19.74-33.16,4.25-19.16,12.33-36.58,10.51-16.33,18.54-33.74,4.58-19.05,12.65-36.47c6.15-13.35,24.8-17.34,38.14-11.2,17,7.89,16.14,9.78,33.16,17.67s18.29,5.2,35.34,13.05,17.49,6.95,34.51,14.8,15.71,10.76,32.76,18.65,17.56,6.73,34.62,14.62,16.4,9.27,33.42,17.16,17.13,7.75,34.14,15.6,16.94,8.11,34,16,18.11,5.56,35.16,13.45,15.89,10.44,32.91,18.29,18.84,4,35.89,11.89,16.11,9.93,33.16,17.82S2052.81,818.66,2069.86,826.55Z"/></g><path class="cls-2" d="M2670.57,795.43a69.43,69.43,0,0,1,20.36,48.69c0,17.05-7.42,33.49-21.49,47.53-12.11,12.11-28.54,18.51-47.53,18.51-18,0-33.71-6.55-46.62-19.42-7.75-7.75-23.82-23.85-23.82-46.62,0-16.51,7.82-33.05,22.62-47.82,12.22-12.25,28.76-18.73,47.82-18.73C2642.06,777.57,2658.9,783.75,2670.57,795.43Zm-16,48.69a33.27,33.27,0,0,0-9.71-23c-6-6-15.78-7.2-22.94-7.2-9.35,0-16.76,2.73-22.11,8.07s-12,13.71-12,22.11c0,6.76,6.33,14,13.16,20.87,6.07,6.11,12.55,8.8,20.91,8.8,9.38,0,16.54-2.55,21.82-7.85C2648.68,861,2654.57,853.21,2654.57,844.12Z"/><path class="cls-2" d="M1752.89,376.71c0,17.16-7.85,30.69-14.15,41.6l-.33.55c-6.07,10.47-14.36,24.84-29.27,33.45S1678,462,1665.47,462c-17.93,0-31.78-3.16-43.53-10-14-8.11-22.54-20.65-29.71-33.05-6.07-10.44-13-24.69-13-42.29,0-17,7.6-30.11,13.71-40.65l.55-.95c5.89-10.15,13.93-24.07,29.05-32.8,10-5.78,25.09-14.55,42.94-14.55,16.33,0,30.36,6.84,43.16,14.25,14.69,8.47,23.34,21.2,29.89,32.51C1744.93,345.62,1752.89,359.37,1752.89,376.71Zm-45.6,23.38c4.95-8.58,9.24-16,9.24-23.38,0-7.6-4.36-15.16-9.45-23.93-6-10.33-10.8-15.89-16.65-19.31-7.82-4.51-16.84-9.35-24.94-9.35-7.45,0-15.64,4.4-24.76,9.67-6.22,3.6-10.44,10.36-15.74,19.53l-.58,1c-5.45,9.42-8.8,15.53-8.8,22.4,0,7.16,2.36,14.15,8.11,24.11,5.38,9.24,10.22,16.14,16.47,19.78,6,3.45,14,5.05,25.31,5.05,11.85,0,19.71-1.49,25.45-4.84,6-3.49,10.47-10.55,16-20.18Z"/><path class="cls-3" d="M1426.75,494.13a12.75,12.75,0,0,1,5.42,15.93,60.65,60.65,0,0,1-9.35,15.49,88,88,0,0,1-12.18,11.78,145.87,145.87,0,0,1-12.73,9.31,75.35,75.35,0,0,1-15.93,7.78,64,64,0,0,1-18.44,3.31c-1.53.07-3.16,0-4.65,0s-2.87-.15-4.29-.25q-4.36-.38-8.73-1.2a74.37,74.37,0,0,1-17.24-5.53,86.41,86.41,0,0,1-8.07-4.36c-1.27-.84-2.58-1.67-3.78-2.55l-2.73-1.93a47.51,47.51,0,0,0-39.05-5.35,37,37,0,0,0-8.55,4.11,44.39,44.39,0,0,0-7.78,6.4,54.06,54.06,0,0,0-6.47,8.25c-.95,1.53-1.85,3.09-2.69,4.73-.44.84-.8,1.67-1.2,2.51l-1.67,3.56c-4.8,9.45-10.44,19.34-20,28.44-10.29,9.53-22.25,14.36-34.11,16.69a87.34,87.34,0,0,1-17.89,1.42c-1.6,0-2.8-.07-4.69-.25a52.51,52.51,0,0,1-5.42-.76,58.09,58.09,0,0,1-9.89-3,82.28,82.28,0,0,1-15.74-8.65c-2.25-1.6-4.36-3.2-6.44-4.76l-5.27-4.22c-10.4-8-26.76-11.35-41-8.65a40.34,40.34,0,0,0-9.71,3,28.56,28.56,0,0,0-3.78,2.15,23.81,23.81,0,0,0-3.38,2.95c-4.62,4.8-9,12.55-13.42,20.76l-.07.11a12.74,12.74,0,0,1-23-10.84c3.6-8.91,7.24-18.58,14.76-28.4a50.79,50.79,0,0,1,6.69-7.13,58.43,58.43,0,0,1,8-5.67,69.34,69.34,0,0,1,16.87-6.91,87.75,87.75,0,0,1,34.51-1.82,79.68,79.68,0,0,1,33.24,12.84l6.07,4.36c1.75,1.24,3.49,2.44,5.16,3.49a48,48,0,0,0,9.2,4.8,19.41,19.41,0,0,0,3.75,1c.58.07,1.13.15,1.64.18s1.64,0,2.44,0a49.17,49.17,0,0,0,10.36-1.13c6.62-1.42,12.8-4.33,16.36-7.89,4.25-4,8.47-10.73,12.07-18.18l1.38-2.84c.65-1.31,1.24-2.62,1.93-3.89,1.35-2.58,2.84-5.13,4.44-7.6a86.67,86.67,0,0,1,11.16-14,78.31,78.31,0,0,1,14.25-11.49,68.25,68.25,0,0,1,17.13-7.85,80.2,80.2,0,0,1,36.14-2.07,76,76,0,0,1,33.42,13.93l3,2.33c.65.55,1.35,1,2,1.53,1.42.91,2.84,1.82,4.33,2.58a46,46,0,0,0,9.6,3.67c1.75.44,3.49.8,5.35,1.09.91.15,1.82.25,2.76.36s1.64.15,2.44.15a31.93,31.93,0,0,0,9.56-1.05,42.7,42.7,0,0,0,10-3.89c3.13-1.64,7.35-4.4,10.76-6.58,6.95-4.62,12.07-9.24,15.45-15.16l.29-.47A12.73,12.73,0,0,1,1426.75,494.13Z"/><path class="cls-3" d="M1402.21,399a12.73,12.73,0,0,1,5.56,15.93,86.83,86.83,0,0,1-18,27.78,64.72,64.72,0,0,1-6.29,5.89c-1.09.91-2.29,1.82-3.45,2.73-1.35.87-2.8,1.93-4.25,2.73a56.24,56.24,0,0,1-18,6.47c-11.93,2.18-22.33,1.35-31.74,1.16a98.23,98.23,0,0,1-16.62-1.89,58.59,58.59,0,0,1-18.4-7.16c-.76-.44-1.49-1-2.25-1.49l-1.93-1.35-2.47-1.75c-1.64-1.13-3.27-2.18-4.84-3.09a41.73,41.73,0,0,0-8.95-4,28.84,28.84,0,0,0-4.22-.84,20.63,20.63,0,0,0-2.11-.18l-3.42-.15a105,105,0,0,0-12.18,0,29.8,29.8,0,0,0-8.29,1.6,15.73,15.73,0,0,0-2.58,1.38,32.45,32.45,0,0,0-3.45,2.8,64,64,0,0,0-12.58,17.67l-3.09,6.29c-1.24,2.47-2.62,4.95-4.11,7.38a83.39,83.39,0,0,1-10.76,14.25,72.12,72.12,0,0,1-31.45,19.67,74.89,74.89,0,0,1-18.4,3.05c-3,.11-6.11,0-8.95-.18-2.62-.18-5.35-.44-8.11-.8a86.72,86.72,0,0,1-17.2-4,64.2,64.2,0,0,1-16.87-8.87l-2.87-2.22c-.58-.47-1.2-.87-1.82-1.31a30.86,30.86,0,0,0-3.89-2.11,41.32,41.32,0,0,0-9.64-2.84c-3.67-.69-8-1.09-12.4-1.45a81.29,81.29,0,0,0-11.45-.11,25.87,25.87,0,0,0-8.69,2c-.65.29-1.27.58-1.89.91s-1.6,1-2.36,1.45c-1.67,1.09-3.27,2.22-4.84,3.38a54.74,54.74,0,0,0-14.87,16.73l-.18.29a12.74,12.74,0,0,1-22.91-11,77.49,77.49,0,0,1,19.45-27.64,79.37,79.37,0,0,1,6.33-5.35c1.16-.87,2-1.56,3.45-2.55a45.4,45.4,0,0,1,4.22-2.62,57.13,57.13,0,0,1,18.22-6.15,101.18,101.18,0,0,1,16.76-1,143.74,143.74,0,0,1,15.78.87,69.84,69.84,0,0,1,17.64,4.25,62.14,62.14,0,0,1,8.73,4.22c1.35.84,2.76,1.67,4.07,2.58l1.89,1.38.95.62c4.84,3.2,10.95,4.95,18.62,5.78,1.93.18,3.89.36,6,.44a48.54,48.54,0,0,0,5.16,0,37.34,37.34,0,0,0,9.38-1.85,40.79,40.79,0,0,0,8.55-4.07,36.44,36.44,0,0,0,7.27-6.11,50.66,50.66,0,0,0,6.11-8.36c.95-1.56,1.85-3.2,2.73-5l3.09-6.4A98.54,98.54,0,0,1,1209.89,419a75.17,75.17,0,0,1,7.56-6,50.88,50.88,0,0,1,10-5.16,61.5,61.5,0,0,1,19.31-3.75,141.29,141.29,0,0,1,16.07.4l3.67.29c1.64.11,3.24.29,4.87.55a64.22,64.22,0,0,1,9.56,2.25,73.44,73.44,0,0,1,16.65,7.89q3.65,2.35,6.87,4.8l4.8,3.71c3.71,2.76,10.44,4.4,19.05,5.2,9.35.87,17.89,1.75,24.65.95a27.37,27.37,0,0,0,8.73-2.18c.65-.25,1.13-.58,1.82-.91s1.45-.91,2.22-1.45c1.45-1.05,2.95-2.15,4.36-3.38a66.61,66.61,0,0,0,14.62-18l.18-.29A12.77,12.77,0,0,1,1402.21,399Z"/><path class="cls-3" d="M1372.39,301.44a12.7,12.7,0,0,1,5.71,16c-3.67,9.16-7.85,18.94-15.78,28.36a55.82,55.82,0,0,1-6.76,6.65c-2.76,2.18-4.87,3.6-7.31,5.2a84,84,0,0,1-15.49,7.64,68.34,68.34,0,0,1-17.71,4,67.52,67.52,0,0,1-9.38.11,77.82,77.82,0,0,1-8.76-1,81,81,0,0,1-32.69-13.13L1261,353l-2.44-1.71c-1.64-1.05-3.24-2-4.8-2.87a41.51,41.51,0,0,0-9.05-3.78,26.25,26.25,0,0,0-4.36-.8,21.3,21.3,0,0,0-2.22-.15c-.91,0-1.82-.07-2.69,0a43,43,0,0,0-10,1.2,37.23,37.23,0,0,0-8.62,3.35,89.82,89.82,0,0,0-9.31,6.44c-6.29,4.84-10.73,9.71-13.13,14.8l-.65,1.38-.91,1.82c-.62,1.24-1.24,2.47-1.89,3.71-1.35,2.44-2.8,4.91-4.36,7.35a80,80,0,0,1-11.53,14.11,73.66,73.66,0,0,1-14.73,11,77.46,77.46,0,0,1-16.62,7.42,68.49,68.49,0,0,1-18.91,3c-1.64,0-3.24,0-4.84-.11s-2.8-.22-4.22-.36c-2.8-.25-5.6-.65-8.47-1.2a80.82,80.82,0,0,1-17.2-5.16,69.64,69.64,0,0,1-8.33-4.33c-1.38-.8-2.69-1.71-4-2.62-.62-.44-1.27-.95-1.89-1.42l-1.6-1.24a48,48,0,0,0-18.36-9.56,36.52,36.52,0,0,0-4.91-.91c-1.75-.18-4-.36-5.89-.44a57,57,0,0,0-11.05.55,30.37,30.37,0,0,0-9.13,2.62,20.07,20.07,0,0,0-2,1l-2.44,1.53c-1.56,1.09-3.16,2.22-4.65,3.42a60.39,60.39,0,0,0-14.94,17.16l-.18.36a12.75,12.75,0,0,1-22.91-11.09,81.72,81.72,0,0,1,19.05-27.67c2-1.93,4.07-3.78,6.25-5.53,1.09-.87,2.22-1.71,3.38-2.55s2.65-1.85,4.07-2.65a61.09,61.09,0,0,1,17.42-6.84,86.34,86.34,0,0,1,17.09-2c2.84-.07,5.31-.07,8.29.07a64.4,64.4,0,0,1,9.09,1c12.15,2.18,23.24,7.78,32.36,14.47l1.27.91c.29.18.62.44.95.62.65.4,1.31.84,2,1.2a39.12,39.12,0,0,0,4.33,2,47.53,47.53,0,0,0,10,2.62,53.11,53.11,0,0,0,5.56.62c.91.11,2,.15,2.84.18s1.53,0,2.25,0a30.88,30.88,0,0,0,8.91-1.71,48.49,48.49,0,0,0,9.09-4.25,39.24,39.24,0,0,0,7.89-6,43.54,43.54,0,0,0,6.22-7.85c1-1.53,1.93-3.13,2.8-4.84l1.35-2.58,1.49-3.2c5.89-12,15.13-20.91,23.78-27.45a119.16,119.16,0,0,1,14.15-9.42,68.39,68.39,0,0,1,17.82-6.58,79.5,79.5,0,0,1,18.11-1.71c1.49,0,2.95.07,4.4.18s3.2.25,4.8.47a64.39,64.39,0,0,1,9.53,2.07,72.17,72.17,0,0,1,16.8,7.53c2.51,1.53,4.87,3.13,7.13,4.76l3.27,2.47,2.44,1.93a50.72,50.72,0,0,0,19.09,8.73,44,44,0,0,0,5.24.95,31,31,0,0,0,4.76.29,40.14,40.14,0,0,0,10-1.56,54.9,54.9,0,0,0,10.22-4.07,32.64,32.64,0,0,0,8.11-5.53c4.84-4.58,9.38-11.85,13.67-19.74l.07-.18A12.71,12.71,0,0,1,1372.39,301.44Z"/><path class="cls-2" d="M1362.5,865l-18.18,0h18.18c0,14.84-.84,30.54-6.87,45.09-6.15,14.76-17,25.6-26.54,35.16l-1,1c-9.6,9.6-21.6,17.2-37.71,23.89-1.64.65-3.27,1.38-4.95,2.07-11.09,4.76-23.67,10.18-38.62,10.18-11.56,0-28.8-1.42-45.23-8.25-12.76-5.31-21.49-14.73-29.16-23-1.89-2.07-3.78-4.11-5.71-6-11.93-11.93-18.51-25.53-23.38-37.24a108.36,108.36,0,0,1-8.4-42.87c0-2.33-.07-4.62-.11-6.91-.22-11.56-.47-24.62,4.84-37.49,6.11-14.73,16.54-25.89,26.73-36l1.78-1.82c9.16-9.2,19.56-19.6,34-25.6,15-6.22,31-7.05,44.69-7.05,16.58,0,30.65,4.87,43.38,10.18,16.11,6.65,28,14.22,37.6,23.78,1.49,1.49,3.05,3,4.62,4.47,8.65,8.36,18.44,17.82,24,31.09C1362.5,834.44,1362.5,850.66,1362.5,865Zm-36.36,0v0c0-11.45,0-23.31-3.38-31.42-2.58-6.29-8.91-12.36-15.6-18.84-1.75-1.64-3.45-3.31-5.09-4.95-6.18-6.15-14.11-11.05-25.82-15.93-10.69-4.44-19.82-7.38-29.45-7.38-10.07,0-21.64.51-30.76,4.29-7.71,3.2-14.69,10.22-22.11,17.67l-1.85,1.85c-8.18,8.18-15.27,15.67-18.84,24.25-2.4,5.82-2.25,13.71-2.07,22.84,0,2.55.11,5.09.11,7.64a72.59,72.59,0,0,0,5.64,28.94c5,12.11,9.53,19.45,15.49,25.45,2.25,2.25,4.47,4.65,6.69,7.05,5.64,6.11,11,11.89,16.4,14.15,8.51,3.49,19.64,5.45,31.31,5.45,7.45,0,15.64-3.53,24.29-7.24,1.78-.76,3.56-1.53,5.35-2.25,11.56-4.8,19.82-9.89,25.93-16l1-1c7.53-7.53,15.31-15.31,18.65-23.38C1325.63,887.53,1326.14,876.12,1326.14,865Z"/><path class="cls-2" d="M665.61,328.5c13.6,13.6,21.09,30.73,21.09,48.22,0,16.58-7.45,32.47-22.14,47.16-12.58,12.55-28.87,19.2-47.16,19.2-20.84,0-37.31-5.89-48.91-17.49-13.82-13.82-21.74-31.64-21.74-48.87s8.07-35.56,21.56-49.09,31.74-21.42,49.09-21.42C634.12,306.21,651.25,314.13,665.61,328.5Zm-15.27,48.22c0-7.67-3.78-15.89-10.44-22.51-7.38-7.38-15.6-11.64-22.51-11.64-7.78,0-16.73,4.15-23.38,10.76S583.11,369,583.11,376.71c0,7.45,4.25,16.33,11.09,23.16,5.67,5.67,15.74,6.84,23.2,6.84,8.69,0,15.67-2.8,21.45-8.55C646.6,390.42,650.34,383.4,650.34,376.71Z"/><path class="cls-2" d="M653.36,1046.47c7.16,12.36,6.51,26,6,36.87-.11,2.65-.22,5.31-.22,7.93,0,15.82-3.45,29.13-10.84,41.89-1.2,2.11-2.44,4.51-3.71,7.05-4.95,9.78-11.09,22-23.67,29.24-9.89,5.75-20.8,6.73-30.58,6.73-2.69,0-5.27-.07-7.75-.15-2.29-.07-4.58-.15-6.84-.15l-4.18,0c-12.76.07-27.2.22-40.4-7.45-11.75-6.76-21.89-17.74-31-33.53A87.71,87.71,0,0,1,488,1091.27c0-16,7.38-28.44,13.31-38.47.65-1.13,1.35-2.25,2-3.38,5.89-10.22,14.65-23.09,29.89-31.89,10.47-6.07,24.8-13,42.58-13A86.76,86.76,0,0,1,619.25,1016C631.51,1023.06,645.1,1032.22,653.36,1046.47Zm-30.29,35.2c.29-6.8.62-13.85-1.2-17-4-6.87-13.2-12.84-20.84-17.24a50.27,50.27,0,0,0-25.27-6.58c-7.24,0-14.51,2.4-24.36,8.11-6.25,3.64-11.05,9-16.65,18.65-.69,1.24-1.42,2.47-2.15,3.71-4.44,7.45-8.25,13.89-8.25,19.93,0,10.65,4,19.71,7.31,25.45,5.78,10,11.75,16.8,17.74,20.29,4.62,2.65,13,2.62,21.89,2.55l4.47,0c2.62,0,5.24.07,7.85.15,7.6.22,15.45.44,19.09-1.67,3.2-1.85,6.51-8.4,9.42-14.18,1.45-2.87,3-5.89,4.69-8.87,4.18-7.16,6-14.25,6-23.67C622.78,1088.11,622.92,1084.87,623.07,1081.67Z"/><path class="cls-4" d="M1089.29,2082.37l-29.06-46.93a40.73,40.73,0,0,0-13.78-10.44c-10.3-4.52-22.08.11-33.47,4.59-3,1.2-6.07,2.39-9.26,3.48a74.9,74.9,0,0,1-9.54,3.94c-14.45,4.68-29.53,5.07-42.53,5.07-2.21,0-4.38,0-6.62,0H942.3l-.44.05a25.76,25.76,0,0,0-9,3.89c-10.67,7.72-4.58,23-.94,32.2l.7,1.76a6.9,6.9,0,0,1,.34,1.19l.14.39c.87,1.77,1.66,3.46,2.46,5.22a171.42,171.42,0,0,0,11.66,21.55,259.27,259.27,0,0,1,13.62,24.6,212.06,212.06,0,0,0,12.09,21.83,80.12,80.12,0,0,0,14.23,17.8,112.3,112.3,0,0,1,19.11,23.88c7.06,11.4,10.34,17.49,13.52,23.37l.24.45c1.68,3.15,3.36,6.25,5.59,10.12l.4.48c6.21,5.31,11.37,7.85,16,7.85a12.26,12.26,0,0,0,2.26-.21c4.25-.79,7.87-3.92,10.76-9.26.73-1.3,1.36-2.7,2-4.1l.54-1.25,7.05-25.73c1.49-5.29,3-10.59,4.71-16.14,1.54-5,3.54-10.81,5.64-16.32,1.66-4.4,3.43-9.22,5.17-14.7l2.25-7.41,1.52-4.93c.44-1.32.88-2.66,1.39-4,.78-2.14,1.69-4.34,2.95-7.16,4-13.7,5.16-24.34,3.66-34.48A58.1,58.1,0,0,0,1089.29,2082.37Z"/><path class="cls-4" d="M804,1818.66c-.38,1.2-.76,2.39-1.15,3.59h0c-5.25,16.18-7.8,30.63-7.8,44.16,0,14.91,4.24,29.22,9,43.79l1.63,5c4.36,13.62,8.48,26.49,15.72,36.41a146.73,146.73,0,0,0,32.19,32c8.85,6.43,20.52,10,32.89,13.87l2.16.67c2.2.69,4.41,1.38,6.62,2.08,15.14,4.92,28.86,9,43.51,9h6.49c2.41,0,4.8,0,7.17,0,11.51,0,22.33-.44,31.66-3.47,8.9-2.89,17.21-9.57,26.11-16.71,3.23-2.62,7.25-5.87,11.31-8.82s8.11-5.6,12.71-8.57c9.34-6,18.15-11.71,23.43-19,7.17-9.89,11.36-22.94,15.82-36.84l2.46-7.66c4.5-13.8,9.16-28.08,9.16-41.87,0-11.11-3.92-22.28-8.06-34.08l-.16-.45c-1.07-3.11-2.14-6.22-3.14-9.3-3.93-12.09-9.64-27.62-19-40.44a145.07,145.07,0,0,0-31.93-31.49c-11.73-8.54-26.44-13.31-40.65-17.93a136.29,136.29,0,0,0-43.43-7c-3.3,0-6.58-.09-9.87-.18l-2.94-.09c-3.6-.1-7.17-.2-10.61-.2-9.43,0-16.1.8-21.61,2.6-9.1,2.93-17.44,9.61-26.32,16.71l-1,.8c-3.23,2.57-6.56,5.22-10,7.73-4.54,3.27-9.35,6.32-13.22,8.78-9.17,5.84-17.84,11.36-23,18.46-7,9.58-11,22.22-15.39,35.93Z"/><path class="cls-4" d="M1008.4,2265.15c-1-1.69-2.14-3.53-3.39-5.56h0c-7-11.23-10.25-17.29-13.41-23.15l-.38-.71c-2.94-5.46-6-11.11-12.75-22.06a81.56,81.56,0,0,0-14.27-17.82A112.56,112.56,0,0,1,945.12,2172a253.9,253.9,0,0,1-13.66-24.6,206.55,206.55,0,0,0-12.09-21.84,213.16,213.16,0,0,1-13.53-25.08,170.83,170.83,0,0,0-8.44-16.3l-.28-.37a145,145,0,0,0-92-42.2,160.05,160.05,0,0,0-18,1.25l-.49.05a205,205,0,0,1-26.22,1.46c-12.54,0-19-.4-25.32-.8l-1-.06c-6-.36-11.75-.7-23.41-.7s-17.3.23-24.12.55c-5.84.27-12.46.58-25.59.58-12.53,0-18.78,0-25-.11l-4,0c-5.07,0-10.94-.08-20.65-.08-12.49,0-18.93-.33-25.16-.66L585,2043c-6.09-.33-11.84-.63-23.51-.63-12.44,0-18.5.12-24.58.26s-12.57.22-25.17.22c-12,0-18,.43-23.76.84l-6.82.46c-3.43.56-6.51,1.2-9.43,2-8.81,2.27-14.77,6.21-17.72,11.71-2.7,5-2.79,11.25-.27,18.47a109,109,0,0,0,7.07,15.27,159,159,0,0,1,23.31,40.8l.19.49a109.17,109.17,0,0,0,10.43,20.89,156.53,156.53,0,0,0,14.05,19.63l.24.29a211.57,211.57,0,0,1,30.06,48.6l1.66-.74h0l-1.49,1.11a149.48,149.48,0,0,0,11.23,21.26,114.56,114.56,0,0,0,14,18.74l.31.35a144.07,144.07,0,0,1,17.57,23.46c2.49,4,4.89,8.17,7.27,12.32,5.7,9.86,11.08,19.18,18,26.47l.33.36c2,2.17,4.09,4.37,6.13,6.62l.31.34c8.92,9.61,17.35,18.68,26.85,25.34,7.48,5.21,17.28,8.72,26.75,12.11l.55.2c5.16,1.85,10.49,3.75,15.78,6.05,3.69,1.59,7.4,3.26,11.12,5,10.51,4.83,21.39,9.81,32.17,12,10,2.08,21.06,1.84,32.74,1.58h.73c4.35-.11,8.66-.22,13-.22,14.62,0,21.56-.41,28.9-.84l.46,0c7.48-.43,15.22-.88,30.31-.88a134.34,134.34,0,0,1,33.35,3.7,102.46,102.46,0,0,0,26.29,2.92c15,0,22.49.07,30,.15l6.55.07.21,0c8.8-2,18-2.46,26.87-2.88,9.7-.46,19.73-.93,29.43-3.46,25.28-6.6,31.72-29.79,36.19-53.21a155.72,155.72,0,0,0-12.81-72.44ZM486,2132.18h0Zm80.19,129.57h0Z"/><path class="cls-4" d="M485.71,2011l.37,0c6.33-.43,12.87-.88,25.64-.88,12.08,0,18-.1,24.54-.22l2,0c5.62-.1,12-.22,23.21-.22,12.36,0,18.8.33,25,.65l1.26.06c6.06.32,11.79.63,23.46.63,9.8,0,15.75,0,20.9.08l4.13,0c6.15.07,12.34.11,24.71.11,11.65,0,17.34-.23,24.12-.55,5.88-.27,12.54-.58,25.59-.58s19.92.42,25.88.8c5.74.38,11.68.77,23.86.77a173.32,173.32,0,0,0,22.51-1.26l.54-.06c3.68-.43,7.07-.81,11.4-1.09l.55-.12c7.52-3,11.68-7,12.71-12.14a21.8,21.8,0,0,0-.88-10.77l-.4-.69a175.08,175.08,0,0,1-11.94-14.57c-10.35-14.22-15.49-30.28-20.46-45.8l-1.53-4.85c-5.35-16.43-10.56-34.13-10.56-53.87,0-17,3.08-34.75,9.41-54.25l1.85-5.85c4.9-15.39,10-31.3,20.1-45.26a76.39,76.39,0,0,1,14.43-14.74l1.64-2.2c3.94-5.39,9.33-12.78,1.32-19.07a14.55,14.55,0,0,0-2.16-1.41l-4.63-.86a119.37,119.37,0,0,0-23.56-2c-12.85,0-19.14.43-25.22.84-6.65.46-13.53.94-27.47.94-13.74,0-20.82-.34-27.08-.65l-.53,0c-6.47-.29-12.58-.56-25-.56-13.54,0-20.48-.49-27.45-1-1.11-.11-2.19-.19-3.58-.26-.22,0-.44.07-.93.17a17.75,17.75,0,0,1-5-.54c-4.37-.2-9.34-.29-15.65-.29a218.44,218.44,0,0,0-25,1.23,253,253,0,0,1-27.67,1.31c-11.73,0-17.94.28-23.94.55l-2.3.11c-6.55.32-13.33.65-26.41.65a247.26,247.26,0,0,0-24.93,1.06,267.52,267.52,0,0,1-27.73,1.23,110.48,110.48,0,0,1-30-3.69,76.11,76.11,0,0,0-22.49-2.56c-14.15.18-16.41,1.1-24.81,4.5-5.06,2.06-11,4.36-19.73,7.26-11.07,3.61-24,10.36-40.65,21.26A127.1,127.1,0,0,0,295,1782.43c-1.39,1.89-2.86,3.77-4.37,5.7l-.77,1c-7.53,9.61-15.32,19.54-18.68,31.19-2.12,7.22-1.58,16.75-.94,27.93.33,5.35.69,11.6.69,18.18,0,3.7-.07,7.39-.15,11.24-.26,12.44-.5,24.2,2.64,33.86,3.93,12.16,10.85,24.82,21.79,39.85,7.4,10.17,17.54,19.68,32.87,30.84,13.3,9.68,26.28,16.5,39.71,20.84a150.71,150.71,0,0,0,31.51,6.63l.37,0c2.35.22,4.75.44,7.06.55l.32,0,.31-.1a16,16,0,0,1,4.84-.72,241.55,241.55,0,0,1,26.44,1.26,205.17,205.17,0,0,0,23.34,1.14C473.93,2011.86,479.65,2011.45,485.71,2011Z"/><path class="cls-4" d="M1255.29,1680.12c11.47,7.48,17,11.64,22.38,15.68l.49.36c5.1,3.81,9.93,7.41,20.11,14,1.82,1.2,3.42,2.26,5.25,3.42,16.59,7.27,29.72,7.26,40.41-.26,3.32-3.47,6.75-7.12,10.36-11.15.12-.19.26-.37.39-.56l.47-.67a7.38,7.38,0,0,1,2.28-2.38l.38-.34c3-3.48,6-7.1,9.07-10.75l.86-1c8.26-9.93,16.81-20.21,26.38-29.32a187.68,187.68,0,0,1,47.33-32.7,16.88,16.88,0,0,1,7.5-1.74c22.94.29,28.21,2.12,42.68,10.52l.65.38c4.12,2.38,9.25,5.34,16.75,9.13l6.15,3.09c6.08,3,13.29,6.65,20.75,10.67l.38.15c6.13,1.68,11.59,1.88,16.26.62l.56-.15.37-.44c5.15-6.21,10.6-11.75,15.75-16.91l.55-.56a166.59,166.59,0,0,0,11.8-12.79,94.87,94.87,0,0,0,12.31-19.82c6.35-13.11,11.88-19.13,30.3-26.79a16.17,16.17,0,0,1,6.94-1.24c6.51.27,13.09,0,19.27-.26h.37c10.22-.39,20.79-.8,31.77.8,11.84,1.71,22.51,5.3,33.09,8.87,5.72,1.94,11.64,4,17.34,5.39,4.89,1.24,9.78,2.37,14.58,3.46l.48.11c11.68,2.71,23.75,5.52,35.31,9.72,13.18,4.79,25.14,10.65,36.71,16.31l.84.41q4.93,2.46,9.85,4.81c5.74,2.74,11.79,5.26,17.68,7.71l.74.31c9.7,4.06,19.74,8.26,29,13.8,16,9.55,30.47,20.17,42.14,28.72l1,.67c2.54,1.87,5,3.68,7.51,5.45l3.49,2.52c11.26,8.08,21.89,15.7,30.68,23.48,1.3,1.15,2.49,2.24,3.61,3.28l.3.23q15.81,9.57,33.8,18.62a139.27,139.27,0,0,0,40,5.87q6.43,0,12.92-.59c4.85-1,9.28-2,13.78-3.08,2.47-1,5-2,7.46-3,4.29-1.68,8.73-3.41,13.14-5.38,23.38-10.42,26.8-31,28.46-52.94a6.51,6.51,0,0,1,.11-.71l.11-.72a117.88,117.88,0,0,0-.74-17.94c-1-8.48-2.92-17.28-4.43-24l-5.81-25.58c-2-9.17-3.94-17.22-5.91-24.63-1.09-4.06-2.23-8.07-3.44-12.07L2092.4,1556l-7.43-25.12a146.92,146.92,0,0,0-8.29-21.66c-3.11-6.15-7.38-12.47-12.64-20.11-2.46-3.55-5-7.28-7.63-11.21l-.24-.38c-1.18-1.86-2.39-3.75-3.54-5.75l-3.38-5.78c-3.89-6.68-8.44-14.41-13.13-21.74-2.27-3.54-4.53-7-6.87-10.39s-4.74-6.67-7.3-10.18c-4.86-6.63-10-13.37-15.4-20q-3.94-4.87-8-9.65l-4.09-4.67q-1.92-2.15-4-4.3c-5.73-6-12.29-11.89-18-17l-4.16-3.69c-5.13-4.53-10.43-9.21-15.74-14.47-2.85-2.8-5.58-5.56-8.22-8.24-3.47-3.52-6.8-6.89-10.09-10s-6.06-5.57-8.69-7.69c-1.37-1.12-3.14-2.46-5-3.89-1.63-1.24-3.35-2.54-5-3.82q-3.08-2.35-6.07-4.66c-4.93-3.8-9.58-7.39-14.29-10.78a206.1,206.1,0,0,0-20.43-12.94c-7.07-4-14.56-8-22.23-11.76-8.34-4.15-16-7.74-22.74-10.66-6.91-3-14.33-5.85-23.33-9.06-5.84-2.12-11.62-4.07-17.63-6.1l-11.84-4c-6.68-2.31-13-4.49-19.29-6.47-4.1-1.29-8-2.42-11.72-3.37s-7.18-1.78-11.75-2.72c-7.49-1.49-15.55-2.82-24.67-4.06l-19-2.33-5.67-.51c-7.19-.46-15.48.22-23.34.95l-1.45.14c-3.83.36-7.82.74-12,1q-3.51.22-7.14.32c-2.45.07-5,.11-7.35.07-4.38,0-8.83-.07-13.32-.25l-13.26-.58c-8.38-.4-16.74-.44-25.29-.44-6.91,0-13.59.14-20.66.29l-31.19.29c-4,.07-7.91.25-12.26.55l-3.31.21c-3.28.21-6.79.44-10.25.55-4.9.19-9.68.22-13.71.22-5.33,0-9.76-.1-13.94-.32-4.46-.24-9.39-.69-14.26-1.3l-4.36-.59c-2.94-.4-5.64-.78-8.24-1-3.43-.36-7.18-.61-11.79-.77-2.54-.09-5.09-.11-7.8-.13l-4.81,0c-8.72,0-18-.35-26.88-.91-8.13-.48-16.16-.73-25.25-.77a173.22,173.22,0,0,0-23.81,1.11c-1.68.21-3.49.48-5.42.76-2.4.35-5,.73-7.66,1.05-3.41.4-7.1.71-11,.9-4.23.29-8.39.43-12.71.43-14,0-21.15,0-28.15.07h-.51c-7.24,0-14.43.07-28.86.07a182.67,182.67,0,0,1-24.85-1.47l-.25,0-1.36.19c-3,.43-6.32.9-9.76,1.25a242.1,242.1,0,0,1-27.95.9c-9.56,0-19.78-.51-26.66-.87-9.17-.39-18-.48-25.48-.51-6.45-.06-12.62-.33-18.58-.6-11.3-.5-22-1-31.77.17-15.19,1.55-33,3.63-49.82,7.23-10.37,2.18-21.08,5.9-32.42,9.85-5.12,1.78-10.38,3.61-15.79,5.36l-3,1c-15.73,5-30.58,9.65-44.7,15.79-5.43,2.32-10.78,4.45-16,6.52-11,4.36-21.3,8.47-30.39,13.59-6.63,3.61-13.34,9-19,13.73l-2.3,1.93c-5.9,5-12,10.08-19.08,14.94-5.86,4-11.67,7.6-17.28,11.1-9.11,5.68-17.72,11-25.35,17.24a10.92,10.92,0,0,1-14.56-16.24c9-8.82,18.59-15.72,27.91-22.39,5-3.57,9.68-6.93,14.09-10.46s8.64-7.47,13.17-11.72c1.74-1.63,3.52-3.3,5.36-5,6.53-6,13.64-12.36,22.44-17.82,11.67-7.12,23.34-12.24,34.62-17.2,3.26-1.43,6.46-2.84,9.89-4.44,4.49-3.25,8.93-6.74,9.54-10.55a5.14,5.14,0,0,0,0-1.32l-.09-.73-.57-.46a33.27,33.27,0,0,0-6.89-4.38l-.7-.17c-2.89-.11-6.15-.18-10-.18-8.17,0-16.76,1.9-25.85,3.92l-.59.13a196.22,196.22,0,0,1-23.39,4.25,488.21,488.21,0,0,0-49.28,7.45c-3.19.69-6.38,1.34-9.55,2l-.68.14c-13.44,2.76-26.13,5.36-38.43,9.29-6.39,2.09-13.06,3.9-18.42,5.36l-.44.12c-10.38,2.85-20.18,5.53-29.12,9.5-8,3.53-15.62,8.85-23.72,14.5l-.6.42c-5.79,4-11.78,8.21-18.25,11.9s-13.37,6.88-19.93,9.86l-1.13.51c-8.69,4-16.9,7.68-23.71,12.6-8.32,6-16,13.28-24.27,21.21l-.31.3c-4.15,4-8.43,8.07-12.88,12-3.63,3.23-7.29,6.39-11,9.54-9.42,8.11-18.32,15.76-26.12,24.33-10.61,11.65-19.88,24.24-29.67,37.55l-1.43,1.91a477.38,477.38,0,0,0-27.3,42c-8.21,14-15.23,29.18-22.31,44.83-3.07,6.83-6.72,13.47-10,19.38-4.87,8.9-9.47,17.31-12.28,25.89-2.67,8.11-3.77,17.33-4.95,27.18-.58,4.74-1.2,9.6-2,14.77q0,4.76,0,9.6c0,22.95,0,46.68,4.57,68.39,3,14.46,10.33,17.76,22.87,18.8.89,0,1.74,0,2.6,0,2.32-.11,4.38-.26,6.71-.51,19.68-5.75,33.65-23.52,36.46-46.39.58-4.74,1-9.44,1.34-14,1.05-12.83,2-25,7.16-37.07,3-11.52,6.64-22.69,10.11-33.5l.22-.68c1.93-5.77,3.53-11.78,5.23-18.13,1.48-5.55,3-11.28,4.85-17.2a126.45,126.45,0,0,1,7.53-19,169.46,169.46,0,0,1,10.11-17.05q1.79-2.72,3.54-5.33c2.25-3.36,4.41-6.6,6.42-9.82l4.42-7.56c1.63-2.82,3.29-5.6,5-8.31,5.35-8.54,11-16.67,16.54-24.53l4.47-6.41a10.91,10.91,0,0,1,18.14,12.13q-2.35,3.68-4.7,7.3c-5.2,8.05-10.11,15.66-14.58,23.46-1.47,2.53-2.86,5.1-4.22,7.67L600,1486c-2.3,4-4.64,7.81-6.89,11.48l-2.8,4.57a156.07,156.07,0,0,0-8.13,14.9,98.43,98.43,0,0,0-5.41,15.44c-1.35,4.9-2.51,10-3.74,15.46-1.5,6.61-3,13.45-5.06,20.41l-5.71,49.68c0,4.41.11,8.83.18,13.46,0,2.94,0,6-.12,9.21-.31,12.61-.65,26.9,5.95,37.65a27,27,0,0,0,11.85,10.66l.39.18H581c5.47-.21,9.37-.55,13.88-1l.93-.09c3.78-.34,7.68-.7,12.75-1l.75-.21a43.53,43.53,0,0,0,10.33-7.53,55.28,55.28,0,0,0,10.23-14.62l.17-.55a450.42,450.42,0,0,1,11.73-56.46,10.91,10.91,0,0,1,5.16-6.59,10.79,10.79,0,0,1,8.28-1,10.94,10.94,0,0,1,7.89,12.26,418.24,418.24,0,0,0-4.48,44.75A48.19,48.19,0,0,0,661,1667.1c2.46,6.45,8.75,14.6,16.75,17.27a15,15,0,0,0,13.12-1.54c8.57-5.39,9.36-21.39,9.94-33.07l.14-2.86c.05-15.34.59-29.7,1.63-43.91.71-9.61,2.13-19.53,3.63-30l.38-2.7c1.07-7.61,2.17-15.48,3-23.33l1.21-11.89c1.49-14.67,3-29.84,5.24-44.42,3.13-20.47,6.3-40.22,10.76-56.75,3.9-14.57,15.77-58.92,45.86-56.73,16,1.15,36.8,11.08,45.19,51.82,3.19,15.54,4.37,33.2,5.57,54.68.35,6.21.6,12.53.85,18.81l0,1.07c.47,11.2.9,21.79,1.84,32a167,167,0,0,0,7.36,37.28l.33,1,1,.22c13.45,2.84,19.95,4.07,26.47,5.28l.87.17c6.54,1.26,13.56,2.61,26.78,5.39a277.77,277.77,0,0,1,28.49,7.31,261.75,261.75,0,0,0,25.58,6.58l11.42,2.4,15.88,3.35,1.65.35c6.33,1.35,13.09,2.79,25.63,5.4,12.37,2.62,18.95,3.7,25.31,4.74l1.41.23c7,1.12,14.16,2.28,28.12,5.21s20.55,4.17,27.06,5.39l1.29.24c6,1.13,12.53,2.36,24.23,4.77l22.4.17a36.12,36.12,0,0,0,3.1,4.34l.42.5,3.12.55c6.92,1.16,14.07,2.35,28,5.28,17.51,3.68,34.11,10,48,15.79C1224.82,1663.54,1240.52,1670.51,1255.29,1680.12Z"/><path class="cls-4" d="M2347.78,2296.44l-.95-21.77-.61-2.86c-.65-2.7-1.32-5.51-2.11-8.5-4.33-16.1-15-24.82-31.6-25.92l-1-.06-.94.28c-8.21,2.46-16.48,3.77-24.47,5-4.5.7-9.15,1.41-13.64,2.37-4.71,1-9.54,2.39-14.67,3.91-10,2.94-21.43,6.27-33.48,6.27a130.2,130.2,0,0,1-28.14-2.73,104.62,104.62,0,0,0-23.06-2.18,75.91,75.91,0,0,0-22.44,2.91,99.84,99.84,0,0,1-28.72,3.68,107,107,0,0,1-28.62-3.43,82.46,82.46,0,0,0-22.57-2.68,105.64,105.64,0,0,0-23.26,2.21,131.74,131.74,0,0,1-27.94,2.63c-13.61,0-20.52-.57-26.68-1.08s-12.13-1-24.49-1-18.61.47-24.63.92l-.44,0c-6.48.49-13.18,1-26.16,1a145.33,145.33,0,0,1-27.72-2.35,115.66,115.66,0,0,0-23.48-2l-2.65.05c-2.83.39-5.69.79-8.69,1.13a11.53,11.53,0,0,1-5.55-.61l-1-.34-4.41.17-4.11.16c-6.64.28-13.5.58-27.47.58a130.51,130.51,0,0,0-24.91,2,158,158,0,0,1-28.95,2.33,230.15,230.15,0,0,1-28.39-1.51,203,203,0,0,0-25.46-1.37c-12.63,0-18.84.45-25.44.92l-.51,0c-6.76.53-13.74,1.08-27.9,1.08-13.83,0-20.69-.22-27.32-.43-6.36-.24-12.75-.44-26.53-.44-13.56,0-20.34-.11-27.11-.22H1569c-6.52-.1-13.2-.21-26.16-.21-14.16,0-21.39-.5-27.78-.93s-12.88-.85-26.07-.85c-11.75,0-18.06.17-24.25.34l-2.32.06c-6.58.25-13.63.47-27.28.47a209.67,209.67,0,0,1-28.4-1.64l-.53-.06a198.6,198.6,0,0,0-25-1.36,109.68,109.68,0,0,0-24.77,2.44,133.59,133.59,0,0,1-29.12,2.83,272.78,272.78,0,0,1-36.74-2.91l-.45,0h-.6c-1.9.1-3.77.21-5.7.21a85.63,85.63,0,0,1-11.33-1l-.84-.11c-5.23-.7-11.18-1.51-17-1.07-14.22,1.13-21.06,12.46-27.11,22.47a92.24,92.24,0,0,1-6.94,10.41l-.81,1.34c-2.38,4.64-4.68,9.18-7,13.85l-.65,1.32c-2.11,4.24-4.3,8.66-6.57,12.92l-7.65,14.18c-2.6,4.72-5.37,9.49-8.26,14.18-1.07,1.78-2.14,3.5-3.17,5.13l-.67,1.59c-.59,1.57-1.41,3.41-2.3,5.44l-.15.34c-5.57,12.62-14,31.69-.22,40.54,6.8,4.35,15.18,4.83,23.29,5.29l3.91.24,5.42-.53a234.2,234.2,0,0,1,28.65-1.52,169.27,169.27,0,0,1,29.38,2.27,140.7,140.7,0,0,0,25.41,2c13.39,0,20.36.29,27.14.58l1.38.06c6.79.29,13.2.56,26.28.56s19.83,0,26.36-.07h1c6.86,0,13.73-.07,27.46-.07a170.87,170.87,0,0,0,25.75-1.69,188.46,188.46,0,0,1,29-1.95c13.25,0,19.64-.49,26.48-1s14-1.07,28.32-1.07c11.74,0,18-.21,24.3-.41l2-.07c6.25-.24,13.34-.51,27.2-.51,12,0,18.78.11,24.8.22l2.17,0c6.63.14,13.21.26,26.55.26a123.37,123.37,0,0,1,29.41,3.14,95.48,95.48,0,0,0,24.08,2.6,98.75,98.75,0,0,0,24.19-2.52,124.87,124.87,0,0,1,29.34-3,118,118,0,0,1,29.5,3.29,93.12,93.12,0,0,0,24,2.67c12.6,0,18.82-.34,25.48-.7l.57,0c6.64-.39,13.5-.79,27.44-.79,12.46,0,18.7-.41,26.17-1,6.75-.5,13.72-1,27.32-1,12.82,0,19.09-.35,26-.81l1.26-.07c6.57-.39,13.36-.79,26.31-.79s19.76.1,26.52.21l3.53,0c5.73.07,12.21.15,23.44.15s17.54-.13,23.74-.27l2.7-.06c6.27-.17,13.05-.33,27.05-.33,13.27,0,19.93,0,26.69-.07H2089l18,0c15.17,0,23,.22,30.24.47l2.4.07c6.81.2,13.86.4,27,.4a205.8,205.8,0,0,1,31.55,2.1,182.42,182.42,0,0,0,28.12,1.86c14.68,0,21.66-.41,29.05-.85,6.19-.37,13.21-.79,25.59-.87l.88-.1c3.88-.79,7.77-1.54,11.84-2.32,2.67-.51,5.61-.91,8.72-1.32,6.35-.85,12.92-1.72,19.09-3.87l1.23-.67a105.47,105.47,0,0,0,16-14.67l.7-1.11c3.39-7.28,4.73-15.67,5.9-23.07l.1-.65c.28-1.75.55-3.46.85-5.09,1-5.35,1.78-10.7,2.73-17.4V2330Q2348.39,2313.23,2347.78,2296.44Z"/><path class="cls-4" d="M2445.28,1764.24a96.56,96.56,0,0,1,13.48-14.73c.56-.58,1.14-1.16,1.73-1.75,2.92-2.92,5.94-5.94,7.86-9.93,2.88-5.9,1.59-9.86,0-12.16-3.92-5.65-12.46-6.05-24.13-4.93l-.46.07c-1,.16-2,.34-2.74.53-2,.44-4,1-6.34,1.77l-6.47,2.25c-4.49,1.62-8.95,3.35-13.43,5.12a361.38,361.38,0,0,0-51.2,25.35c-1.34.82-2.65,1.68-4,2.53l-2.54,1.69c-5.78,4.86-19.3,16.25-10.36,32.21q.93,1.69,1.84,3.28l.8,1.39,4.3,5.7c6.12,7.73,11.71,16,17.11,24l.61.9c5.17,7.87,10.39,16.4,15.49,25.37l.32.57.92.92c3.66,3.06,8.54,6.58,13.76,6.58a11.36,11.36,0,0,0,1.86-.15c2.32-.39,5.62-1.74,8.17-6a38.7,38.7,0,0,0,4-9.7l.15-1.08c.42-12.59,1.91-22.23,4.83-31.26a173.91,173.91,0,0,1,24.41-48.57Z"/><path class="cls-4" d="M2619.88,2037c-.65-.16-1.31-.27-2.09-.38-.24,0-.48-.07-.73-.13l-.93-.19-.94.13a206.68,206.68,0,0,1-29.27,1.87c-16.78,0-34.07-3-52.86-9.12-4.9-1.59-9.6-3.3-14.48-5.26l-.59-.18c-6.22-1.58-13.78-2.39-22.77,3.49a41,41,0,0,0-3.48,2.59l-.47.38-13.64,21.64-.54,1.32A492.9,492.9,0,0,0,2463,2147l-.09,7.62c-.07,5.58-.13,11.15-.23,16.69l-.26,10.27c0,.64,0,1.28,0,2.2s0,1.65,0,2.59a3.93,3.93,0,0,1-.1,1l-.09.82c-.48,21.53-1.19,42.75-2.11,63.08l0,.62.11.62c3.08,16.46,8.4,26.38,15.82,29.49a13.28,13.28,0,0,0,5.17,1,17.26,17.26,0,0,0,9.61-3.25,26.94,26.94,0,0,0,5.45-5.07l.59-.9c.75-1.45,1.45-2.86,2.16-4.32a208.58,208.58,0,0,1,14-24.69,222.75,222.75,0,0,0,12.78-22,242.69,242.69,0,0,1,14.06-24.16c6-9.23,9.52-14.63,12.69-19.47l5.5-8.39c2.74-4.17,6-9.16,10.92-16.74,7.35-11.29,11.22-16.87,15.18-22.52l.53-.76c3.59-5.16,7.3-10.5,14.11-21,7.54-11.62,11.67-17.4,15.33-22.5l.75-1.06c3.56-5,7.23-10.16,13.89-20.46l3.84-5.82.43-.84c2.2-5.51,2.25-10.07.16-13.95C2631,2041,2626.59,2038.33,2619.88,2037Z"/><path class="cls-4" d="M2729.25,1819.86c-4.36-13.42-13.57-26.07-22.49-38.33l-1.38-1.89c-8-10.88-18.74-24.59-31.7-34-10.54-7.65-23.9-13.94-42.06-19.79-14.18-4.64-26.64-7.3-38.1-8.15l-1.32-.1-1.22.52a12.85,12.85,0,0,1-5.06,1.05h-29.66l-.68.06a104.72,104.72,0,0,0-16.33,3.66c-9.23,3-17.64,9.89-26.54,17.19-3.58,2.94-7.64,6.27-11.86,9.32-1.2.89-2.39,1.74-3.59,2.6l-2.24,1.61c-11.27,8-21.91,15.64-29.15,25.62a148.18,148.18,0,0,0-20.82,41.45c-3.84,11.82-3.8,25.33-3.76,39.64l0,6.12c0,3.76-.07,7.53-.18,11.29-.3,12.65-.59,24.61,2.74,34.87,4.27,13.11,11.64,26.93,21.9,41.09,8.33,11.43,19.63,20.76,34,31.24,11.32,8.22,24.75,14.78,41.05,20,16.59,5.37,30.89,7.87,45,7.87,18.34,0,32.82-1.95,45.55-6.11l3.18-1c14.22-4.59,28.92-9.34,39.86-17.3,7.29-5.33,12.77-14.15,18.59-23.5,2.79-4.53,5.79-9.35,9.1-14,10.46-14.35,18.22-25.57,22.71-39.31a144.35,144.35,0,0,0,7-45.17c0-3.5.07-7,.14-10.55v-.56C2732.32,1842.37,2732.57,1830.15,2729.25,1819.86Z"/><path class="cls-5" d="M2333.58,2119.32l-.05-.35c-.49-3.37-1-6.39-1.6-9.23v0a167.57,167.57,0,0,0-7.14-24.16l-.29-.6c-2.19-3.63-4.11-7.12-5.86-10.69-5.7-11.43-13.28-18.08-22.55-19.75-12.83-2.33-28,4.81-46.17,21.81l-.33.36a185.49,185.49,0,0,1-13.9,15.36c-8.72,8.47-18.48,15.74-27.92,22.77l-.85.63c-4.25,3.15-8.59,6.37-12.73,9.62a522.46,522.46,0,0,1-42.9,30.77c-15.87,10.1-32.17,18.67-46,25.72-4.74,2.43-9.3,4.71-13.76,6.88l-1.73,1.29c-.91.74-1.87,1.52-2.82,2.32l-.27.25c-10.32,10.57-8.63,18.32-5.4,22.94,4.72,6.81,14.8,11.47,30.13,13.87a100.09,100.09,0,0,0,10.56.49,74.25,74.25,0,0,0,22-2.84,101.43,101.43,0,0,1,29.19-3.74,130.31,130.31,0,0,1,28.32,2.7,101.85,101.85,0,0,0,22.88,2.21c8.23,0,16.85-2.55,26-5.24l.67-.19c5.11-1.48,10.39-3,15.86-4.18,5.31-1.11,10.72-1.95,15.13-2.63l2.65-.43,3.11-.51.88-.27c23.11-10.48,44.48-24.65,44.32-57.15-.09-15.16.11-26.77.65-37.65Z"/><path class="cls-5" d="M1246.86,1960.81c-2.35-3.47-4.64-7-6.8-10.33l-2.27-3.5c-3.58-5.38-7.33-10.83-12.16-17.67-5.05-7.21-9.07-13.06-12.66-18.42-8-11.8-16.48-24.23-25-35.21l-2.28-2.85c-3.65-4.55-7.77-9.71-11.38-14.77l-3.78-5.34-2-2a150.5,150.5,0,0,0-11.81-10.66c-8.25-6.52-17.14-9.23-24.38-7.44-4.07,1-9.69,4-13.42,12.39a41.88,41.88,0,0,0-3.25,14.79v.22l0,.22c.14,2.06.25,4.09.25,6.19,0,1.21-.06,2.4-.12,3.57l-.07,1.36.19,3.91a4.92,4.92,0,0,1-.47,2.51l-.29.58-.08.64c-1.76,14.09-6.06,27.3-9.85,39l-2.33,7.18.49,1.22a4.08,4.08,0,0,1-.17,3.12l-1,2.39c-7.91,19.09-16.08,38.84-15.87,60,.14,13.91,4.41,26.12,13.43,38.44l.36.42c2.4,2.4,5.6,5.53,9.09,8.49l.52.37c17.78,10.38,40,14.69,61.3,14.69,18.61,0,36.51-3.3,50.1-8.71h0c15.81-6.31,26.41-15.78,31.5-28.17,6.09-14.83,4.23-33.66-5.51-56Z"/><path class="cls-5" d="M1523.36,1698.38c-.94-10.62-9.37-16.26-16.81-21.23-1.81-1.21-3.63-2.43-5.37-3.72l-6.1-3.13c-9-4.53-15-8-19-10.39-9.26-5.34-10.91-6-23-6.21h-.92l-.82.43a154.64,154.64,0,0,0-35.85,25.39c-8.39,8-16.45,17.7-24.25,27.06l-.94,1.13c-3.38,4.06-6.71,8.05-10,11.9-1.91,2.17-3.83,4.3-5.7,6.36l-.53.76c-7.44,14.19-6.27,26,3.59,36,.38.38.76.74,1.13,1.09l.91.87.65.51c1.61,1,3.28,2.07,5.14,3.31,10.68,7,16,10.22,21.84,13.8,3,1.81,6,3.7,9.89,6.13l.5.32.58.14a5.62,5.62,0,0,1,2,.88l1.67,1.14c12.19,8.37,26.83,18.42,42.7,18.42a36.3,36.3,0,0,0,10.68-1.59c7.57-2.33,14.29-8.1,20.55-17.63l.35-.68c1.47-3.78,2.9-7.56,4.22-11.29,4.73-13.23,11.11-30.5,18.57-46.8l.19-.51C1522.82,1718.13,1524.18,1707.52,1523.36,1698.38Z"/><path class="cls-5" d="M1921.32,1717.59l-2.53-1.84c-1.51-1.09-3-2.21-4.6-3.32-3.66-2.61-7.4-5.29-11.16-8l-1-.78c-12.41-9.05-25.24-18.41-39.76-27.13-7.47-4.48-16.28-8.16-25.7-12.09l-1.11-.47c-5.86-2.46-11.93-5-18-7.9-2.45-1.17-4.93-2.39-7.42-3.61l-2.69-1.32c-11-5.43-22.45-11-34.51-15.43-9.94-3.6-20.71-6.09-32.14-8.74l-4.07-1c-3.7-.87-7.44-1.75-11.2-2.71-6.83-1.71-13.61-4-19.62-6.07l-.57-.19c-9.29-3.11-18.07-6-27-7.34-8.42-1.23-17.61-.86-26.5-.51-5.22.23-11.32.46-17.69.4h-.77l-.71.3c-7,3-8,4.57-10.76,10.19a126.86,126.86,0,0,1-15.8,25.39,182.22,182.22,0,0,1-14.33,15.67l-.39.4c-7.25,7.29-15.46,15.55-21.57,25.3-4.42,7.13-7.75,16.23-11.26,25.85l-.43,1.15c-2.86,7.72-5.82,15.71-9.69,23.73-7.62,15.7-14,32.76-19.4,47.66-.65,2.42-1.34,4.89-2,7.39-4.09,14.69-8.73,31.35-7.13,45.87,1.18,11.07,7.19,20.71,18.39,29.49l.49.32c5.82,3.2,11.85,6.51,23.18,13.9,9.41,6.13,14.81,9.79,19.13,12.75l.77.4a169.71,169.71,0,0,0,49.12,10.55h.25l.25,0c11.11-.82,23.19-1.85,36.16-3.89,9.47-1.5,20-4.06,30.25-6.56,8.16-1.95,16.59-4,25.33-5.76l.92-.32a33.74,33.74,0,0,0,6.24-4.09c8.87-7.42,9.19-17.67,9.48-26.71l0-.52-.13-.5a64.44,64.44,0,0,1-.29-30.42,88.1,88.1,0,0,1,15.82-34.22,104.69,104.69,0,0,1,27.23-24.75c17.82-11.26,39.16-18.77,65.21-23a275.43,275.43,0,0,1,47.23-3.08h.27l.27,0c11-1.51,22.78-4.34,26.85-13.93a10.78,10.78,0,0,0-.41-9.82Z"/><path class="cls-6" d="M2153.95,1956.09l-29.8,20.32a12.87,12.87,0,0,0-2,1,54.93,54.93,0,0,1-24.89,8,43.71,43.71,0,0,1-14.8-6c-.45-.29-.9-.61-1.35-.9-2-2.37-4.17-4.66-6.3-6.87-4.62-5-9.12-10.91-8.5-17.7.53-6.17,5.31-11,9.77-15.25l31.15-20.72c5.27-1.72,10.46-2.53,15.53-.61l26.57,23.46c2.17,2.9,4.5,6,5.35,9.4C2155.42,1953,2155,1954.7,2153.95,1956.09Z"/><path class="cls-7" d="M959.79,789.21a246.15,246.15,0,0,0-13.89-37.05c-5.56-11.71-13.27-22.73-20.8-33.6-7.35-10.62-17.89-18.87-27.09-28.47S880.15,670.74,869.86,663c-10.55-8-20.22-17.56-31.67-23.64-11.64-6.18-23.85-12.22-36.18-16.4s-26.4-3.2-39.27-5.38-25.85-4-38.91-4-26.58-2-39.53,0-26.22,4.58-38.73,8.65-24.18,10.69-35.93,16.73c-11.53,5.89-21.31,15-32,22.91-13.71,10.11-15,27.93-3.24,40.22C586.85,715,587,714.88,599,728.23s9.27,16,21.67,28.91,16.29,9.24,28.73,22.22,9.05,16.11,21.49,29.05,12.11,13.24,24.54,26.18,16.91,8.62,29.31,21.6,8.22,16.94,20.62,29.89,12.58,12.8,25,25.74,13.64,11.75,26,24.69,10.29,15,22.69,28,12.33,13,24.73,26,14.47,10.95,26.91,23.89c11.78,12.29,31.38,10.44,42.07-2.87,8.33-10.33,16.73-20.36,23.13-31.64,6.55-11.49,11.27-23.71,15.78-35.93s5.13-25.45,7.67-38.25,4.76-25.31,5.24-38.36,2.65-26.07,1.05-39.09S963.46,801.83,959.79,789.21Z"/><path class="cls-7" d="M1785.64,1874.51c.25.2.5.39.75.58l1,.81.67.21a14.56,14.56,0,0,1,7.46,5.36l.39.53.55.36c12.56,8.27,27.14,15.31,41.12,21.73l1.92.82.6,0q.8.05,1.58.05a17,17,0,0,0,13.18-5.68l.56-.62.23-.81c3.91-13.62,10.83-24.27,20.74-31.79a5.64,5.64,0,0,1,.55-.38c.25-.16.5-.32,1-.67,2.2-1.85,4.69-4,6.28-6.68,4-6.82-1.55-10.69-4.23-12.55-.65-.45-1.33-.92-1.92-1.4-.81-.67-1.59-1.38-2.33-2.09l-.62-.48c-8.39-5.1-16.15-9.5-23.82-13.47a9.13,9.13,0,0,1-3.9-12.29,9.23,9.23,0,0,1,11.58-4.21c8.29,3.48,16.36,7.13,24,10.86l.72.26c15.86,3.93,31.6.13,44.39-10.78a5.33,5.33,0,0,1,1.32-.85l.8-.52a50.22,50.22,0,0,1,6.63-4.48c3.48-2.1,7.08-4.28,9.9-7.43h0c3.82-4.3,5.13-8.55,3.89-12.65-1.78-5.84-8.73-10.37-20.67-13.47l-.69-.11c-27.88-1.75-52.94-2.87-77.26,1.2-21.72,3.42-39.91,9.73-54.08,18.74-16.35,10.38-26.84,24.51-30.33,40.83-1.8,8.15-1.18,15.08,1.94,21.75C1772.37,1861.51,1777.92,1868.17,1785.64,1874.51Z"/><path class="cls-7" d="M2435.92,2082.34l-.11-14.68c-.07-4.38-.31-8.8-.75-13.55a162.09,162.09,0,0,0-5-26.63c-.81-2.91-1.85-6.26-2.89-9.58l-5.79-17.94c-6.14-18.35-12.94-36.74-20.23-54.66-16-39.33-33.24-73-52.62-102.93l-2.11-3.08c-2.65-3.88-5.31-7.76-8-11.57l-.32-.55-1.34-.84a17.32,17.32,0,0,0-8.56-2h-.65l-.62.22c-26.4,9.44-52.27,14.22-76.92,14.22-45.5,0-84-17-100.41-44.38a54.39,54.39,0,0,1-7.82-23l-.07-.8-.4-.7c-1.28-2.19-2.45-4.38-3.6-6.72-3.66-7.23-7.73-10.31-14.07-10.65l-.45,0-.44.09c-6.4,1.25-11.71,2.39-17,3.69q-15,5-29.85,8.74c-41.09,14.17-73.91,34.56-104,54.21l-.58.47c-7,7-15.3,16.79-16.72,29.84a33.43,33.43,0,0,0,5.05,21.79l.34.55.5.4c8.91,7.09,17.76,14.69,26.31,22.59,4.5,4.16,8.81,8.53,14.12,14,8.94,7.79,17,12.49,25.41,14.77a33.15,33.15,0,0,0,20.27-.8l62.82-41.65a14.56,14.56,0,0,1,17.68,1.19l67.63,59.77a14.56,14.56,0,0,1-1.41,22.93l-69.89,47.67-.77.69c-4.33,5-8.33,9.75-12.23,14.58l-.81,1v.94c-.51,2.19-1,4.38-1.55,6.57l-.12.49,0,.51a78.13,78.13,0,0,1-5.35,31.21c-5.14,13.2-14,24.36-25,31.44a59.56,59.56,0,0,1-19.34,8.07,65.08,65.08,0,0,1-20.32,1.17c-12-1.15-23.69-5.13-35.83-12.18a122.68,122.68,0,0,1-14.79-10.17,109.83,109.83,0,0,1-13.38-12.43,89.18,89.18,0,0,1-11.19-15.34,114.46,114.46,0,0,1-7.64-16.47c-1.08-2.89-2.07-5.64-3-8.28a188.82,188.82,0,0,0-8.09-20.16,125.48,125.48,0,0,0-15.44-24.11q-.8-1-1.59-1.94c-1-1.23-2-2.46-3.09-3.67-.33-.36-.69-.77-1-1.16-.48-.55-1-1.09-1.34-1.51-.72-.76-1.43-1.51-2.17-2.17a82.72,82.72,0,0,0-10.54-8.53,202.77,202.77,0,0,0-25.73-14.7c-11.67-5.78-23.67-11-36.37-16.63l-10.2-4.49-.72-.23c-8-1.7-15.35-5.21-23.1-8.91-2.38-1.14-4.8-2.3-7.27-3.42a107.36,107.36,0,0,0-57.78-8.74l-.4.07c-5.72,1.31-11.63,2.67-17.41,3.83-7.68,1.51-15.33,3.34-22.72,5.11l-2.64.63c-2.45.6-4.88,1.18-7.28,1.75l-2.41.57-.45.14c-5.17,2-9.35,3.78-13.16,5.67-2.9,1.45-5.56,3-6.37,5.76s.63,5.38,2.87,9.11l.24.4a43.75,43.75,0,0,0,4.67,6.3l.8.68a237.79,237.79,0,0,1,29.59,21.38c13.78,11.89,28.21,25.14,40.4,41.56,10.38,14,19.2,31.08,27,52.25,7.87,21.43,11.83,39.81,12.47,57.86a215.57,215.57,0,0,1-4.72,53.43l-.07.54c-1.45,22.74,6.17,36.55,22.65,41,7.6,2,15.29,2.38,22.65,2.45l5.21-.22c5.65-.24,12-.51,23.25-.58l.47,0c12.76-1.74,25.61-3.79,39.28-6.24,6.85-1.24,13.63-2.14,20.19-3l1.72-.23c9.93-1.32,19.31-2.56,28.07-4.69,10-2.39,19.37-5.85,29.3-9.5l1.84-.67c5.47-2,11.12-4,16.79-5.83,16.62-5.31,32.52-11,47.27-17,14.45-5.87,28.89-12.54,45.45-21,13.38-6.84,29-15.09,43.6-24.38a481.1,481.1,0,0,0,40.52-29.05c4.65-3.67,9.31-7.13,13.8-10.48,9.2-6.82,17.9-13.27,25.39-20.57,7.81-7.61,14.66-16.41,21.29-24.94,1.66-2.16,3.39-4.36,5.12-6.52l.31-.46c19.77-34.35,20.38-61.06,1.84-81.67a7.31,7.31,0,0,1-1-1.51l-1.2-1.52c-.28-.32-.56-.64-.73-.82l-.3-.35a9.1,9.1,0,0,1,12.68-13c31.06,26.85,58.27,60.95,80.87,101.34,2.54,4.56,5.13,9.4,7.68,14.35,2.32,4.58,4.8,9.51,7.26,15a180.49,180.49,0,0,1,10.69,32.48c1.31,5.65,2.34,11.33,3.07,16.89.35,2.63.58,4.81.83,7.12l.94,8.92c1.25,11,2.27,22.17,3.11,31.74,1.71,18.6,3.19,37.63,4.54,58.19l.71,2.83c.1.42.19.87.29,1.35.61,3,1.53,7.51,5.31,9.6,2.87,1.59,6.39,1.42,9.52,1.28,1,0,2-.08,2.81-.07l.44,0,.43-.09a55.89,55.89,0,0,1,14.68-1.16,54.84,54.84,0,0,1,10.85,1.64l.64.1c.57,0,1.13.05,1.65.05,8.8,0,12.09-5,13.3-9.35.23-.89.46-1.81.66-2.74l.07-.62c.69-18.45,1.21-37.56,1.6-58.39.35-18.79.55-38.65.58-59Z"/><path class="cls-8" d="M1761.84,2128.3c-.56-14.79-3.93-30.14-10.62-48.3-6.77-18.43-14.21-33-22.75-44.49-10.22-13.8-23.24-25.75-35.8-36.62-11.84-10.23-24.93-18.15-37.66-25.85l-5.27-3.2c-23.58-14.35-40.06-21.78-46-24.3a20.14,20.14,0,0,1-7-5.14l-.45-.51-.68-.08a16.28,16.28,0,0,1-7-2.56c-11.36-7.38-17.09-11.33-22.14-14.81s-10.22-7-21.46-14.39c-10.4-6.77-15.73-9.69-21.47-12.84-5.55-3-11.84-6.43-23.58-14.1-10.68-6.94-16-10.23-21.81-13.84l-1-.61c-5.16-3.2-11-6.83-21.46-13.66-9.36-6.07-14.57-9.94-18.06-12.64l-.42-.25a158.17,158.17,0,0,0-64.78-11.57,123.92,123.92,0,0,0-33.14,9.93c-14.71,6.8-27,15.91-36.62,27.09-11.66,13.63-18.56,26.22-21.7,39.63a75.27,75.27,0,0,0-1.8,17.89l0,.37a8.69,8.69,0,0,1,.18,1.81c-.27,14.94,6.23,28.29,12.52,41.2l2,4,8.79,10.88c5,6.4,9.37,12.24,13.74,18.41,1.55,2.16,3.09,4.42,4.6,6.76l.36.41c5.64,4.7,12.65,8.6,21.51,12,16.47,5.42,35.14,5.33,48,4.75,1.69-.29,3.41-.62,5.07-1,5-1,10-2.15,15.54-3.51,6.58-1.54,11.83-2.68,16.51-3.58,6.83-1.31,13.52-2.41,20-3.47,4.15-.68,8.28-1.36,12.44-2.08,8.9-1.54,20.61-3.53,32.36-5.27a10.92,10.92,0,0,1,4.33,21.39c-10.57,2.69-21.08,5.31-31.69,7.89l-28.65,7-.51.21c-3.56,2.16-8.32,5.61-8.55,10.65-.18,3.22,1.87,5.22,3.51,6.81.51.5,1,1,1.44,1.48l.44.57.77.64a5.94,5.94,0,0,1,2.06,1.85l.26.31a137.71,137.71,0,0,1,22.79,29.51,129.47,129.47,0,0,1,17.5,54.68c1.75,21.7-1,41.06-8.25,57.87a5.13,5.13,0,0,0-.34.84c-1.2,5.75-.06,9.85,3.38,12.2,4.7,3.2,11.7,4.29,18.11,4.93,14.14,0,21.38.5,27.77.94,6.59.43,12.81.84,25.86.84,13.37,0,20.16.11,27.17.22,6.66.11,13.32.22,26.68.22,14.08,0,21.19.23,27.47.44l.68,0c6.66.21,13,.42,25.7.42h3.21l.25-.07c11-3.21,21.86-3.53,33.41-3.87,8.35-.25,17-.5,25.72-1.94,27.77-4.58,38.44-27.36,44-44.09l0-.17A185.1,185.1,0,0,0,1761.84,2128.3Z"/><path class="cls-6" d="M1066.32,2598.86l-.18-.63a8.49,8.49,0,0,1-.83-2.86c-1-10.15-8.6-17.75-18.92-18.9l-.42,0-.4.14a65.11,65.11,0,0,1-21.9,4,58.86,58.86,0,0,1-9.13-.74,55.64,55.64,0,0,1-22.93-9.48l-.34-.19c-.6-.25-1.19-.46-2-.73-11.56-4-22.42-2.81-30.84-1.24-3,1-6.05,2-9.06,2.93-10.58,3.3-20.68,6.06-31.87,9.07l-31.77,8.73c-9.86,2.66-20.18,5.63-28.83,9.36a68,68,0,0,0-11.66,6.28c-1.1.76-2.17,1.54-3.43,2.47l-.37.27-.2.42c-1.57,3.33-1.89,6.13-1,8.56.85,2.24,2.73,4,5.61,5.23a65,65,0,0,0,10.43,3.37l.26.06.27,0c3.44-.22,6.85-.51,10.59-.92,5.85-.62,12-1.06,17.29-1.23,5.1-.19,10.05-.18,14.83-.18h2c6.72,0,13.46.08,20.08.17,4.21.06,8.38.12,12.45.15l64.8.26c4.79,0,11.12.07,17.58.61,3.74.26,7.37.7,10.58,1.09,2.07.25,4,.48,5.81.65,4.52.44,9,.56,12.77.62h.23l.22-.05c7.57-1.83,13.48-4.76,18.07-9l.48-.44.53-3.63a90,90,0,0,0,1.15-13A11.65,11.65,0,0,0,1066.32,2598.86Z"/><path class="cls-6" d="M802.5,1585.61c-.07-1-.14-1.92-.2-2.89l-.09-.46a199.67,199.67,0,0,1-8.64-43.75c-1-10.93-1.46-22.29-1.92-33.27l0-1c-.26-6.3-.51-12.57-.83-18.76-1.18-20.84-2.22-36.62-5-49.92a76.43,76.43,0,0,0-4.37-14.55l-.22-.52-.48-.3a14.14,14.14,0,0,0-3.32-1.54,12.31,12.31,0,0,0-11.22,1.87l-.42.29-.21.47a143.76,143.76,0,0,0-7.11,21.06c-4.06,15-7,33.7-10,53.18-2,13.15-3.45,27.18-4.84,40.75l-1.43,14.07c-.94,9.22-2.21,18.11-3.44,26.76-1.52,10.51-2.83,19.89-3.47,28.31-.7,9.49-1.16,19.3-1.37,30.3a34.34,34.34,0,0,0,20.83,26.8l.5.2.53-.1a118.56,118.56,0,0,1,22.24-1.9h3.28l.44-.28c5.42-3.39,9.39-8.71,12.9-17.25l.13-.59c1-18.15,3.16-36.26,5.63-47.26a26.66,26.66,0,0,1,2.15-5.86l.21-.43,0-.47C802.64,1587.58,802.57,1586.6,802.5,1585.61Z"/></g><g id="outline"><path class="cls-9" d="M2758.64,1810.3c4.95,15.27,4.62,30.8,4.33,45.82-.07,3.42-.15,6.87-.15,10.29a177.07,177.07,0,0,1-8.51,54.73c-6.29,19.38-17.82,35.24-27.09,48-2.65,3.64-5.16,7.71-7.85,12-.55.91-1.13,1.85-1.71,2.8a18.27,18.27,0,0,1-2.91,10.44c-7.31,11.24-11,16.84-14.73,22.44s-7.35,11.05-14.55,22.18c-7.64,11.75-12,17.42-16.14,22.91-4,5.2-7.71,10.11-14.58,20.73-7.49,11.53-11.53,17.2-15.45,22.69s-7.53,10.55-14.55,21.38c-7.45,11.42-11.42,17.13-15.24,22.62s-7.49,10.69-14.58,21.6c-7.27,11.24-10.95,16.8-14.62,22.4s-7.31,11.09-14.51,22.22a218.07,218.07,0,0,0-12.55,21.53,240.63,240.63,0,0,1-14.29,24.62,182.31,182.31,0,0,0-12.22,21.49,211.45,211.45,0,0,1-14,24.91,266.75,266.75,0,0,1-26.69,36.4,88.35,88.35,0,0,1-14.47,12.87.5.5,0,0,1-.11.15c-17.2,22.47-16.58,42.4-8.87,68.4,3.05,6.87,6,13.89,8.51,21.09,6,16.91,10.58,34.8,11.67,54.07a113.88,113.88,0,0,1-2.15,29.74,85.48,85.48,0,0,1-12.25,29.45,77.9,77.9,0,0,1-23.27,22.62,99.11,99.11,0,0,1-28.22,12.11c-2.4.73-4.8,1.2-7.16,1.67s-4.76.95-7.16,1.27l-3.53.51c-1.27.18-2.87.22-4.25.33a46,46,0,0,1-8.95,0,41.53,41.53,0,0,1-9.42-1.6c-1.6-.44-3.2-.87-4.8-1.38s-3.09-1.38-4.62-2.15c-6.22-2.91-11.42-7.53-15.67-12.29-8.29-9.89-11.89-20.44-14.4-30.18a148.08,148.08,0,0,1-3.78-28.47c-.76-18.4.65-36,3-53.38.29-2.22.65-4.44,1-6.62V2462c.8-10.84,6.87-28.58-8.76-31.42-23-4.15-31.78,25.89-35.82,45.71-.47,3.09-.76,5.64-1.09,8.22-.73,5.85-1.45,11.89-3.89,23.6a99.76,99.76,0,0,1-8.58,25.42,62.94,62.94,0,0,0-5.85,17.24c-2.18,10.51-3,15.67-3.85,21.16-.84,5.05-1.64,10.36-3.53,19.64a44.66,44.66,0,0,1-.55,8.69c-.76,4.69-3.05,10.65,0,14.84,2.07,2.91,5.67,4.62,9.78,5.82.4,0,.8,0,1.2-.07,6-.36,11.82-.44,17.49-.4l64.87,1.16,32.51.33,32.54.65,16.22.33c5.38.15,10.73.18,16.58.47s11.85.8,17.56,1.64,10.33,1.56,15.27,2,9.82.62,15.42.76,11.09.4,16.65.73l16.11,1.16c5.24.33,10.51.55,15.85.76a12.74,12.74,0,0,1,.07,25.45h-.07c-10.84.4-22.51.44-32.94.22-5.24,0-10.47,0-15.78.15s-11.24.29-17.05,0-12-.8-17-1.27-9.75-.58-14.84-.58l-32.11.58-64.83,1.31c-10.87.18-21.74.4-32.73.4s-21.49,0-32.25.11c-5.13,0-10.11.22-14.94.62s-9.85,1.13-15.89,1.67-11.89.84-17.6.91l-8.07.11-7.67.22c-5.05.18-9.93.58-15.64,1s-11.56.65-17.2.73-11.42.15-17.53-.15a166,166,0,0,1-18-2,126.32,126.32,0,0,0-14.11-1.53c-4.65-.22-9.75-.18-15.05-.11s-10.29.22-15.53.47-11.05.58-16.69.73l-65.34.58c-5.24,0-10.33.11-15.27.36s-10.18.76-16.07,1.13a343.76,343.76,0,0,1-34.65.22c-6-.29-12.18-1.05-17-1.53s-9.6-.73-14.65-.8-9.93-.07-14.29.29A84.21,84.21,0,0,0,1909,2662a119.38,119.38,0,0,1-18.87,2.84,172.77,172.77,0,0,1-18.36.22,130.81,130.81,0,0,1-18.84-2,133.12,133.12,0,0,0-14.29-2.22,137.3,137.3,0,0,0-14.18-.36,128.24,128.24,0,0,0-14.25.87c-4.47.47-10.33,1.49-16.58,2s-12.18.65-18,.69-11.82-.18-18-.73-12.07-1.56-16.51-2.07c-4.62-.51-9.24-.73-14.22-.8s-9.82,0-14.22.44-8.4,1.13-14.4,2.18a136.77,136.77,0,0,1-18.8,2c-6.15.18-11.82.18-17.89-.11a172.14,172.14,0,0,1-18-1.78c-10.33-1.64-17.74-1.64-30-1.75-5.78-.11-12-.44-17.78-1.05s-10.36-1.09-15.2-1.35-10.07-.29-14.84-.22a98.25,98.25,0,0,0-13.49,1c-4.11.62-10,2-16.54,2.8a145,145,0,0,1-18.65,1.09c-5.78,0-11.71-.11-17.82-.62s-12.07-1.35-16.65-1.82-9.38-.69-14.4-.76-10.07-.07-14.73.22-9.05.84-14.87,1.56a178.41,178.41,0,0,1-18.11,1.35l-16.36.15c-5.16.07-10,.29-15.34.65s-11.38.65-17.05.76l-8.51.07-4.44,0c-1.56,0-3.09,0-4.73-.15a102.69,102.69,0,0,1-19.6-2.8c-6.29-1.56-9.82-2.58-13.89-3.09-2-.29-4.15-.44-6.36-.55s-4.4-.11-7.31-.15l-16.36-.11-32.29-.29-32.33.07H1209.6l-7.78,0c-2.47,0-4.91.11-7.27.25-4.73.25-9.05.84-14.84,1.6a167.2,167.2,0,0,1-18.07,1.38l-16.29.18c-5.09.11-9.78.4-15.09.87s-11.49.87-17.27,1-11.42.15-17,.07-11.31-.22-16.91-.51-10.65-.55-15.82-.69l-7.78-.15-8.18-.07c-5.78-.07-11.82-.29-17.85-.95s-11.16-1.42-15.82-1.78-9.6-.55-14.73-.55l-65.05-.62c-11.16-.15-21.74-.51-32.36-.55-5.42,0-10.62-.07-15.56.07s-9.67.51-15,1-11.64,1-17.42,1.16-11.49.15-16.84.11l-32.44-.07c-10.73-.07-21.78,0-33.16-.55l-16.07-.76c-5.16-.18-10.4-.25-15.71-.29-5.56,0-11.2-.15-16.94-.44s-11.35-.8-16.36-1.09-10.18-.47-15.42-.58a107.23,107.23,0,0,0-14,.44c-4.29.4-8.07,1.35-14.15,2.73a101.89,101.89,0,0,1-19.05,2.36c-6.33.18-11.82,0-17.6-.25s-11.85-.87-17.27-1.53-10-1.13-15.09-1.38c-2.51-.15-5.09-.22-7.67-.29s-5.6-.11-8.44-.25c-5.71-.22-11.82-.73-17.53-1.53s-10.33-1.56-15.27-2-10.07-.65-15.2-.73-10.07-.07-15,.29-10.51,1.05-16.44,1.27-11.64.22-17.27,0a12.74,12.74,0,0,1-.15-25.45h.15c5.2-.22,10.29-.51,15.16-1.13l15.82-2.22c5.85-.76,11.75-1.13,17.42-1.35s11.35-.33,17.24-.11,12,.76,17.05,1.24,9.75.69,14.84.73c2.55,0,4.91,0,7.78-.07s5.67,0,8.58,0c5.75.07,11.82.44,17.27.91s10,.73,15.13.8,10.36,0,14.84-.33a68.36,68.36,0,0,0,13.05-2.11,117,117,0,0,1,36-4.8c5.56,0,11.27,0,17,.22l16.07.73c5.09.18,10.25.22,15.53.18,5.49,0,11.09,0,16.73.15l12.11.4c6-1.35,11.05-3.82,12.95-8.65a38.14,38.14,0,0,0,2.15-10L749.61,2452l-.87-2c-5.67-12.36-15.53-17.56-26-22.62-.69-.15-1.38-.25-2.07-.36-14.51-3-27.24-8.84-39.56-14.44-3.45-1.6-6.95-3.2-10.4-4.69-4.51-1.93-9.27-3.64-14.36-5.45-11.64-4.18-23.71-8.51-34.87-16.33-12.65-8.84-22.84-19.85-32.73-30.51-2.07-2.25-4.15-4.51-6.22-6.69-9.71-10.25-16.4-21.85-22.84-33.09-2.18-3.75-4.36-7.56-6.65-11.27a111.68,111.68,0,0,0-14-18.69A147.8,147.8,0,0,1,521.11,2262a190.18,190.18,0,0,1-13.56-25.64,149.88,149.88,0,0,0-11.27-21.31,156,156,0,0,0-14-19.64,186.32,186.32,0,0,1-16.87-23.56A142.06,142.06,0,0,1,452,2145.13a109.16,109.16,0,0,0-10.4-20.84,92.26,92.26,0,0,0-14-18.07,125.94,125.94,0,0,1-18.65-24.07,226.7,226.7,0,0,1-13.64-24.8,65.68,65.68,0,0,0-6.58-7.75,52.28,52.28,0,0,0-11.2-8.29,183.85,183.85,0,0,1-20.4-5.42c-16.76-5.42-33.34-14.11-49.38-25.74-12.4-9-28.18-21.53-40.47-38.44-13.13-18-21.6-33.74-26.73-49.53-5-15.27-4.65-30.62-4.33-45.45.07-3.42.15-6.87.15-10.33,0-5.35-.29-10.87-.62-16.18-.76-13.09-1.53-26.58,2.22-39.56,5.2-18,16-31.74,24.65-42.84,1.64-2.11,3.24-4.15,4.76-6.18a162.41,162.41,0,0,1,40.87-38.18c19.24-12.62,34.76-20.65,48.83-25.24,1.49-.47,2.87-.95,4.18-1.42,5.93-4.33,12.22-8.29,18.54-12.65,15.67-10.84,22.47-24.29,25.67-40.11.51-4,1.09-8,1.78-11.85.4-3.85.69-7.82.91-11.93a8.86,8.86,0,0,1,2.47-5.82c.73-3.53,1.49-7.05,2.25-10.55l1.67-7.64c1.31-6.11,2.07-12.62,2.91-19.45,1.31-11.05,2.69-22.44,6.44-33.85,3.82-11.6,9.42-21.85,14.84-31.74,3.24-5.89,6.25-11.42,8.76-16.94,7.42-16.47,14.87-32.54,24-48.11a518.09,518.09,0,0,1,29.31-45.05l1.38-1.89c10-13.49,20.22-27.45,32-40.36,9.2-10.07,19.31-18.8,29.13-27.24,3.53-3,7.05-6.07,10.51-9.13,4.07-3.67,8.07-7.45,12.29-11.49,8.65-8.29,17.6-16.87,28-24.33,9.75-7,20.11-11.71,30.14-16.25,6.29-2.84,12.25-5.56,17.67-8.65s10.62-6.76,16.22-10.65c9.09-6.33,18.47-12.91,29.56-17.78,11.38-5.05,23.09-8.22,34.36-11.35,5.93-1.6,11.49-3.13,17-4.91,14.29-4.58,28.76-7.53,42.76-10.4,3.13-.62,6.25-1.24,9.38-1.89a506.21,506.21,0,0,1,52.83-8,180.18,180.18,0,0,0,19.38-3.6c10.73-2.4,21.82-4.91,34-4.91a255.69,255.69,0,0,1,29.6,1.49,228.28,228.28,0,0,0,26,1.27,260.82,260.82,0,0,0,26.25-1.13c7.2-.62,14.69-1.27,29.38-1.27a268.89,268.89,0,0,1,29.6,1.42,228,228,0,0,0,26.07,1.27,180.19,180.19,0,0,0,25.56-1.56,205.06,205.06,0,0,1,30.07-1.89c14.94,0,22.54.47,29.89.91,7.09.44,13.82.84,27.64.84a179.24,179.24,0,0,1,29.82,2.18.46.46,0,0,1,.22,0c4.65-.65,9.67-1.16,14.47-1.42,9.75-.51,18.54-.44,28-.07,4.69.18,9.53.55,14,1s8.36.8,12.36,1.05c7.82.4,16.44.47,24.25.22,8-.25,14.4-1.31,24.18-2.73a199.25,199.25,0,0,1,28.58-1.53c8.84,0,18.18.22,27,.73s16.65.73,25.2.73c4.11,0,8.84,0,13.53.15s9.56.4,14.4.91,9.42,1.16,13.35,1.64,7.71.84,11.64,1c7.71.36,16.33.29,24.36,0,4-.15,8-.47,12.44-.8s9.31-.55,13.93-.65l26.22-.29c8.36-.18,17.53-.47,26.36-.51s17.89,0,27,.36l12.8.51c4.15.15,8.29.18,12.51.18,2.25,0,4,0,5.85-.07l5.82-.29c4-.25,8.18-.65,12.55-1.05,8.76-.8,18.44-1.67,29.05-1l4,.33,3.42.36,6.62.73,13.31,1.71c8.95,1.2,17.93,2.65,26.94,4.47,4.47.91,9.24,2,13.82,3.16s9.05,2.51,13.42,3.89c8.76,2.76,17.13,5.71,25.24,8.51,7.93,2.73,16.58,5.56,24.94,8.58s16.94,6.25,25.42,9.93c8.65,3.75,16.51,7.49,24.62,11.53s16.07,8.22,24,12.73a239.32,239.32,0,0,1,23.78,15.13c7.53,5.42,14.51,10.95,21.27,16.14,3.42,2.65,6.51,4.84,10.76,8.25,3.89,3.16,7.49,6.44,10.91,9.71,6.8,6.51,12.84,12.91,18.65,18.62,5.6,5.53,12,11.13,18.62,17s13.42,12.07,20,19c1.67,1.75,3.31,3.53,4.95,5.35l4.51,5.16c3,3.49,5.85,7,8.73,10.51,5.67,7.05,11.09,14.25,16.36,21.49,2.58,3.56,5.27,7.31,7.85,11.16s5.09,7.64,7.53,11.49c4.84,7.71,9.38,15.42,13.75,23.09l3.16,5.53c.95,1.6,2,3.24,3,4.91,2.15,3.31,4.51,6.76,6.95,10.36,4.91,7.24,10.36,15.13,15,24.44a179.55,179.55,0,0,1,10.4,27.34l7.27,25.05c1.13,3.64,2.65,8.4,3.89,12.65s2.47,8.76,3.6,13.13c2.29,8.76,4.33,17.53,6.18,26.25l2.69,12.55,2.87,12.84a265.34,265.34,0,0,1,4.87,27.53,170.87,170.87,0,0,1,.65,29.05c-.22,4.29-.47,8.44-.69,12.47,1.35,8,4.4,15.53,11.6,19.56a18.52,18.52,0,0,0,9,2.07q14.29-.87,29.31-.95a14.25,14.25,0,0,0,8.18-2.65l10-7.05c2.91-4.73,2.11-9.05-.18-13.42a57.6,57.6,0,0,1-5.31-8.22c-.22-.33-.44-.62-.65-.95a31.32,31.32,0,0,1-5.75-17.24,59.32,59.32,0,0,1-1.09-12.18,40.64,40.64,0,0,1,.33-5.6c.18-1.82.44-3.93.69-5.2.47-2.87,1-5.75,1.67-8.62,1.2-5.78,2.73-11.49,4.4-17.16a181.14,181.14,0,0,1,14-32.91,165.69,165.69,0,0,1,21-29.53c.95-1,1.93-2,2.91-3a34.11,34.11,0,0,0,2.22-4.47c4.87-12.22-1.6-25.34-1.45-38.51-14-58.73,2.22-116.76,3.13-119.85a18.17,18.17,0,0,1,31.82-6.15c32.8,42.25,71.45,39.85,116.21,37.09,36.94-2.29,75.16-4.65,109.16,20.25,53.89,39.45,56.29,90.62,48.11,120.47,21.93,24.69,32.8,50.94,32.29,78.25a101.11,101.11,0,0,1-7.09,34.73s0,.07,0,.15c-.65,3.49-3.67,10-.73,13.05,1.6,1.64,4.33,2.33,7.16,2.69,15.16.62,31.13,3.75,49.71,9.78,21.45,7,37.56,14.65,50.73,24.25,16.51,12,29.24,28.14,38.47,40.84l1.38,1.85C2741.59,1776.85,2752.75,1792.16,2758.64,1810.3Zm-32,45.05c.25-12.55.51-24.36-2.55-33.82-4.11-12.65-13.05-24.91-21.71-36.8l-1.38-1.89c-7.67-10.51-18.07-23.78-30.51-32.84-10-7.24-22.84-13.31-40.54-19-14-4.58-25.89-7.09-36.8-7.89a18.35,18.35,0,0,1-7.2,1.49h-29.53a100.55,100.55,0,0,0-15.45,3.45c-8.29,2.69-16.29,9.27-24.76,16.22-3.85,3.16-7.85,6.44-12.07,9.49-2,1.45-3.93,2.84-5.89,4.25-10.91,7.78-21.2,15.13-27.93,24.4a142.79,142.79,0,0,0-20,39.93c-3.6,11.09-3.53,24.33-3.49,38.36l0,5.71c0,3.82-.07,7.64-.18,11.42-.29,12.22-.55,23.74,2.47,33.05,4.11,12.62,11.24,25.93,21.13,39.56,7.89,10.84,18.84,19.85,32.84,30,10.76,7.82,23.67,14.15,39.53,19.27s29.71,7.6,43.34,7.6c17.71,0,31.67-1.85,43.89-5.85l3.05-1c13.85-4.47,28.18-9.09,38.44-16.54,6.51-4.76,11.67-13.13,17.16-22,2.91-4.73,5.93-9.56,9.35-14.33,10.18-14,17.71-24.87,21.93-37.78a139,139,0,0,0,6.73-43.49C2726.46,1862.74,2726.53,1859,2726.6,1855.36ZM2628,2057.13c2.69-6.73,1.89-12.58-9.38-14.87-.87-.22-1.78-.29-2.65-.47a212.82,212.82,0,0,1-30,1.93c-17.31,0-35.16-3.05-54.54-9.38-5.16-1.67-10-3.45-14.73-5.35-6.18-1.56-11.82-1.56-18.44,2.76a36.16,36.16,0,0,0-3,2.25l-12.8,20.44a484.68,484.68,0,0,0-14,92.65c-.11,8.11-.18,16.25-.33,24.36-.07,3.35-.18,6.69-.25,10,0,1.56,0,3.13,0,4.69a8.57,8.57,0,0,1-.18,2.18q-.71,31.58-2.11,63.2c2.76,14.76,9.13,32.54,22.22,23.74a22,22,0,0,0,4.22-3.93c.73-1.42,1.42-2.8,2.11-4.22a215.29,215.29,0,0,1,14.33-25.27,216.43,216.43,0,0,0,12.51-21.49,250.06,250.06,0,0,1,14.33-24.62c7.27-11.24,10.95-16.8,14.62-22.4s7.31-11.09,14.51-22.22c7.45-11.45,11.42-17.16,15.27-22.65s7.45-10.69,14.55-21.6c7.45-11.49,11.53-17.2,15.45-22.69s7.53-10.51,14.55-21.38C2625.63,2060.73,2626.83,2058.88,2628,2057.13Zm-145.85-332.35c.07-.07.15-.11.22-.18h-.25C2482.1,1724.67,2482.14,1724.71,2482.14,1724.78Zm-18.69,10.65c5.31-10.87-8.8-10.22-18.62-9.27-.87.15-1.78.29-2.62.51-2,.44-3.85,1-5.75,1.6l-3.09,1.05-3.31,1.16c-4.44,1.6-8.84,3.31-13.24,5.05a354.89,354.89,0,0,0-50.4,24.94c-2,1.2-3.89,2.51-5.82,3.75-8,6.73-15.2,14.51-9.09,25.42.84,1.53,1.67,3,2.47,4.4l4,5.2c6.47,8.18,12.22,16.73,18,25.27,5.53,8.4,10.73,17,15.67,25.67,5.78,4.84,11.82,8.15,15.6,1.85a34,34,0,0,0,3.35-8.18c.36-10.87,1.56-21.85,5.09-32.76a177.91,177.91,0,0,1,25.2-50.07,99.19,99.19,0,0,1,14-15.31C2458,1742.49,2461.56,1739.36,2463.45,1735.43Zm-25.74,804.23c6.47-9.49,9.13-22.62,8.36-36.8s-4.33-29.13-9.45-43.71a314,314,0,0,0-19.38-43.16,18.79,18.79,0,0,1-2-11.64c2.29-14.18,4.18-28.51,5.82-42.91a18.19,18.19,0,0,1,1.13-10.4c2.07-20.14,3.67-40.44,4.95-60.76-1.71-10.25-7.45-18.44-16.58-23.93a33.73,33.73,0,0,0-5.53-.8,32.72,32.72,0,0,0-5.31.29,10.82,10.82,0,0,1-2,.4c-.58.07-1.13.18-1.71.29a42.72,42.72,0,0,0-6.33,2.25c-7.13,4.44-8.47,13.64-10,22.44.07,1.27.15,2.55.22,3.85,1.89,42.44,2.84,84.72,3.05,127.41a19.75,19.75,0,0,1-.51,4.44l-.11.33c-1.85,7.31-3.6,15.45-5.09,23.27s-2.84,15.82-3.89,23.74c-2.15,15.82-3.42,31.67-2.8,46.73a107,107,0,0,0,2.65,21.24c1.53,6.4,3.93,12,6.55,15s4.69,3.93,9.09,4.44a14.55,14.55,0,0,0,3.56,0c.69-.07,1.2,0,2-.11l2.62-.4a49.14,49.14,0,0,0,5.24-.87c1.71-.36,3.42-.65,5.05-1.16C2420.65,2555.63,2431.41,2549.23,2437.7,2539.66Zm-5.38-427.8,0-29.49-.11-14.65c-.07-4.44-.33-8.84-.73-13.24a158,158,0,0,0-4.87-26c-1.13-4.07-2.73-9-4.11-13.53L2418,2001.1q-9.22-27.54-20.14-54.43c-14.58-35.74-31.67-70.43-52.25-102.25-3.35-4.87-6.65-9.78-10.11-14.58-.18-.11-.33-.25-.51-.36a13.9,13.9,0,0,0-6.8-1.56c-28.07,10-54.47,14.44-78.14,14.44-49.71,0-87.42-19.31-103.52-46.14a58.18,58.18,0,0,1-8.33-24.58c-1.27-2.18-2.51-4.47-3.71-6.91-3.16-6.25-6.18-8.4-11-8.65-5.6,1.09-11.13,2.25-16.58,3.56-9.78,3.27-19.74,6.22-29.82,8.73-39.85,13.75-72.36,33.67-103.2,53.82-7.78,7.78-14.47,16.62-15.67,27.67a30,30,0,0,0,4.55,19.49q13.64,10.85,26.51,22.76c4.84,4.47,9.45,9.2,14,14,7.09,6.18,14.87,11.53,24,14a29.54,29.54,0,0,0,18.14-.73l62-41.24a18.16,18.16,0,0,1,22.11,1.49l67.63,59.78a18.2,18.2,0,0,1-1.78,28.65l-72.65,49.6c-2.62,2.62-6,6-8.58,8.87-.84,3.6-1.67,7.24-2.55,10.87a81.68,81.68,0,0,1-5.6,32.65c-4.91,12.62-13.75,25-26.4,33.16a63,63,0,0,1-20.54,8.58,69.25,69.25,0,0,1-21.45,1.24c-14-1.35-26.47-6.36-37.31-12.65a126.64,126.64,0,0,1-15.24-10.47,114.07,114.07,0,0,1-13.82-12.84,93.46,93.46,0,0,1-11.64-16,119.26,119.26,0,0,1-7.89-17c-4.07-10.91-6.91-19.93-11-28.14a122.07,122.07,0,0,0-14.94-23.34c-1.53-1.82-3-3.71-4.58-5.49-.76-.84-1.67-1.93-2.33-2.62s-1.31-1.38-2.07-2.07a78.49,78.49,0,0,0-10.07-8.15,201.47,201.47,0,0,0-25.27-14.44c-14.76-7.31-30.51-14-46.43-21.05-11-2.33-20.47-7.75-31.13-12.58a104.2,104.2,0,0,0-55.85-8.44c-5.85,1.35-11.71,2.69-17.53,3.85-8.51,1.67-17,3.75-25.2,5.71-3.27.8-6.51,1.56-9.71,2.33-4.36,1.67-8.65,3.45-12.84,5.53-6.18,3.09-5.45,4-1.78,10.15a40.39,40.39,0,0,0,4.29,5.78,239.15,239.15,0,0,1,30,21.71c14,12.11,28.65,25.6,40.94,42.14,10.58,14.25,19.56,31.64,27.45,53.16,8,21.78,12,40.51,12.69,59a219.1,219.1,0,0,1-4.8,54.33c-1,16,2,32.4,20,37.31,7.05,1.89,14.29,2.25,21.56,2.33l5.2-.22c6.07-.25,12.33-.51,23.38-.58,12.51-1.71,25.38-3.75,39.13-6.22,7.45-1.35,14.76-2.29,21.85-3.24,9.89-1.31,19.27-2.55,27.93-4.65,9.71-2.33,19-5.75,28.91-9.38,6.11-2.22,12.4-4.55,18.76-6.55,16.51-5.27,32.33-10.95,47-16.87,14.15-5.75,28.51-12.36,45.16-20.87,13.24-6.76,28.73-14.91,43.31-24.22a477.67,477.67,0,0,0,40.22-28.84c4.65-3.67,9.35-7.16,13.89-10.55,9.13-6.76,17.74-13.16,25-20.25,7.49-7.31,14-15.67,20.94-24.54,1.67-2.18,3.42-4.4,5.16-6.58,14.4-25,23.45-53.89,2.29-77.42a10.51,10.51,0,0,1-1.49-2.25c-.51-.55-1-1.13-1.49-1.67l-.22-.25a12.74,12.74,0,0,1,17.74-18.22c33.31,28.8,60.33,64.18,81.67,102.32q4,7.15,7.75,14.47c2.47,4.87,4.91,9.75,7.35,15.16a184.08,184.08,0,0,1,10.91,33.13c1.31,5.67,2.36,11.42,3.13,17.24.4,3,.65,5.45.95,8.15l.84,8c1.2,10.58,2.18,21.2,3.13,31.82q2.67,29.13,4.55,58.29c.22.73.4,1.45.62,2.22.65,2.73,1.05,7.09,3.82,8.62s7.35.65,10.69.76a59.86,59.86,0,0,1,27.16.51c5,.33,9.6-.8,11.2-6.58.22-.84.44-1.71.62-2.58q1.09-29.13,1.6-58.33Q2432.29,2141.35,2432.32,2111.86Zm-47.53-413.37a32.27,32.27,0,0,0-1.13-11.71c-12-15.74-16.18-33-16.29-50.73-.11-.47-.22-.91-.36-1.38-2.51-9.71-8.47-15.49-16-19.85q-34.64-11.62-58.33-34.4c-4.69-2.62-9.31-3.71-15.6-.95a27,27,0,0,0-6.95,4.47,124.66,124.66,0,0,0-10.36,15.82,157.89,157.89,0,0,0-11.56,26c-1.53,4.55-3,9.16-4.11,13.89-.62,2.33-1.13,4.69-1.64,7.09-.33,1.35-.36,1.93-.51,2.76a13.52,13.52,0,0,0-.29,2.4,27.88,27.88,0,0,0,5.38,18.36,26.86,26.86,0,0,0,7.13,6.62,33.45,33.45,0,0,0,4.4,2.25,24.83,24.83,0,0,0,3,1.05l3.31,1.05a132.46,132.46,0,0,0,28.29,4.47c4.87.33,9.82.36,14.76.25,2.44-.07,4.91-.22,7.38-.4s5.05-.44,6.95-.65l.95-.11a12.71,12.71,0,0,1,4.73,24.91c-3.35.91-6,1.53-8.87,2.11-1.45.29-2.87.47-4.29.73a9.45,9.45,0,0,1-3.16.91,240.4,240.4,0,0,0-72.73,19.6l-9.16,6.51a50.47,50.47,0,0,1-29.09,9.35c-4.76,0-9.42.11-14,.25-5.09,1.13-11.27,2-15.71,4.65-5.2,8.73-5.05,18,.58,27.34,13.71,22.84,59.6,42.47,124.51,26.14.91-.29,1.82-.58,2.73-.91,6.4-2.33,8.58-7.45,9-13.24a36.91,36.91,0,0,1-1.49-25.49,35.9,35.9,0,0,1,6.8-12.73,37.17,37.17,0,0,1,5.05-5.09l.69-.58.4-.33.8-.58,1.6-1.24a287.4,287.4,0,0,1,26.11-17.78c8.55-5.16,17.27-9.89,26.11-14.29C2379.23,1710.85,2383.85,1706.27,2384.8,1698.49Zm-41.31,631.73q-.55-16.8-1.16-33.56c-.29-7.16-.62-14.33-.91-21.45-.8-3.31-1.6-6.76-2.58-10.47-4.18-15.56-14.51-21.09-26.69-21.89-8.51,2.55-16.94,3.89-25.2,5.2-4.69.73-9.13,1.42-13.38,2.33-4.47.91-9.13,2.29-14,3.75-10.44,3.05-22.29,6.55-35.2,6.55a133.82,133.82,0,0,1-29-2.8,100.35,100.35,0,0,0-22.18-2.11,70.34,70.34,0,0,0-21.05,2.73,105.14,105.14,0,0,1-30.11,3.85,111.93,111.93,0,0,1-29.85-3.56,76.9,76.9,0,0,0-21.34-2.55,100.73,100.73,0,0,0-22.22,2.11,136.72,136.72,0,0,1-29,2.73c-13.53,0-20.4-.55-27.05-1.09-6.18-.51-12-1-24.11-1s-18,.44-24.22.91c-6.65.51-13.53,1.05-27,1.05a150.42,150.42,0,0,1-28.65-2.44,111,111,0,0,0-22.54-1.93h-1.89c-2.87.4-5.78.8-8.65,1.13a16.15,16.15,0,0,1-2.29.15,17.54,17.54,0,0,1-5.85-1c-2.65.11-5.05.18-7.45.29-6.8.29-13.85.58-27.71.58a125.77,125.77,0,0,0-24,2,163,163,0,0,1-29.82,2.4,233.74,233.74,0,0,1-28.87-1.53,199.21,199.21,0,0,0-25-1.35c-12.76,0-19,.47-25.53.95-7,.55-14.18,1.09-28.33,1.09-13.78,0-20.76-.22-27.53-.44s-13.16-.44-26.33-.44c-13.6,0-20.4-.11-27.2-.22s-13.35-.22-26.65-.22c-14.07,0-21.24-.47-28.14-.95-6.62-.44-12.87-.84-25.71-.84-13.2,0-19.56.22-26.36.4s-13.75.47-27.49.47a214.73,214.73,0,0,1-29-1.67,196.65,196.65,0,0,0-24.91-1.38,102.73,102.73,0,0,0-23.45,2.29,138.92,138.92,0,0,1-30.44,3,274.32,274.32,0,0,1-37.38-2.95c-2,.11-4,.22-6.07.22-9.49,0-19.42-2.91-28.8-2.18-16,1.27-20.76,19.24-30.11,30.69l-.33.58c-2.36,4.62-4.65,9.13-6.95,13.78s-4.76,9.64-7.31,14.4l-7.67,14.22c-2.62,4.76-5.45,9.64-8.36,14.36-1.09,1.82-2.18,3.56-3.24,5.24,0,.11,0,.22-.07.33-3.78,10.15-16.87,32.4-4.95,40.07,6.47,4.15,15.6,4.07,24.18,4.65,1.64-.15,3.24-.33,4.8-.47a239.21,239.21,0,0,1,29.34-1.56,172.87,172.87,0,0,1,30.18,2.33,136.44,136.44,0,0,0,24.62,1.89c14.11,0,21.27.33,28.22.62s13.31.58,26.58.58c13.67,0,20.47,0,27.31-.07s13.75-.07,27.49-.07a165,165,0,0,0,25-1.64,193.88,193.88,0,0,1,29.78-2c13,0,19.31-.47,26-1,7.09-.55,14.4-1.09,28.8-1.09,13.05,0,19.38-.25,26.11-.47s13.71-.51,27.42-.51,20.44.15,27.09.25,13.24.25,26.44.25a127.72,127.72,0,0,1,30.58,3.27,90.79,90.79,0,0,0,22.91,2.47,94.17,94.17,0,0,0,23.05-2.4,130,130,0,0,1,30.47-3.16,122.87,122.87,0,0,1,30.69,3.42,87.71,87.71,0,0,0,22.8,2.55c12.84,0,19.09-.36,25.71-.73,6.84-.4,13.89-.8,27.78-.8,12.69,0,18.87-.44,25.42-.95,6.87-.51,14-1.05,28.07-1.05,12.84,0,19.05-.36,25.64-.8,6.84-.4,13.93-.87,27.89-.87,13.49,0,20.22.11,27,.22s13.24.18,26.51.18,19.53-.18,26.29-.33,13.6-.33,27.2-.33c13.35,0,20,0,26.69-.07s13.38,0,26.8,0c15.2,0,22.91.22,30.4.47s14.62.47,29.24.47a210.58,210.58,0,0,1,32.25,2.15,176.3,176.3,0,0,0,27.42,1.82c14.36,0,21.34-.4,28.73-.84,6.69-.4,13.64-.8,25.71-.87,4-.8,7.93-1.56,11.89-2.33,9.35-1.78,21.71-2.15,30.33-6.33,14.47-7,15.38-26,17.89-39.74C2341.85,2341.49,2342.69,2335.85,2343.49,2330.22Zm-56.4-119.05c23.82-10.8,42.33-24.18,42.18-53.82-.07-12.76,0-25.34.65-37.85-.44-3-.95-6-1.56-9a163,163,0,0,0-7-23.64c-2.11-3.49-4.11-7.09-6-10.95-16.14-32.4-43.45-15.13-63,3.09a189,189,0,0,1-14.18,15.67c-9,8.76-19,16.18-28.69,23.38-4.36,3.24-8.84,6.55-13.09,9.89a526.66,526.66,0,0,1-43.2,31c-15.89,10.11-32.33,18.76-46.33,25.89-4.76,2.44-9.35,4.73-13.82,6.91-1.2,1-2.51,2-3.82,3.13-5.75,5.89-9.13,12.44-5,18.33,4.95,7.13,16.62,10.62,27.53,12.33a96.21,96.21,0,0,0,10.18.47,70.34,70.34,0,0,0,21.05-2.73,105.14,105.14,0,0,1,30.11-3.85,134.12,134.12,0,0,1,29,2.76,97.72,97.72,0,0,0,22.18,2.15c7.67,0,16.07-2.47,24.94-5.09,5.38-1.56,10.95-3.2,16.8-4.44,5.2-1.09,10.33-1.89,15.27-2.65C2283.27,2211.78,2285.2,2211.49,2287.09,2211.17ZM2149.17,1955.5c.95-1.24,1.31-2.76.65-5.24-.76-3-2.84-5.78-4.76-8.36L2121.42,1921c-4.51-1.71-9.13-1-13.82.55L2079.9,1940c-4,3.75-8.22,8.07-8.69,13.56-.55,6,3.45,11.27,7.56,15.74,1.89,2,3.78,4,5.6,6.11.4.25.8.55,1.2.8a38.88,38.88,0,0,0,13.16,5.31,48.86,48.86,0,0,0,22.14-7.09,11.45,11.45,0,0,1,1.78-.87Zm-20.29,641.29-.4-2.15a59.33,59.33,0,0,0-5.93-16.94,94.33,94.33,0,0,1-8.87-25.64,133,133,0,0,1-3.13-25.2,100.66,100.66,0,0,0-2.36-19.31,215.53,215.53,0,0,1-3.82-23.82,182,182,0,0,0-3.24-20.4c-.76-3.6-1.45-6.4-2.18-8.8a74.67,74.67,0,0,0-34.4-25.82c-3.16,0-6.73,0-11.05,0-13.16,0-19.56.15-26.33.29s-13.56.36-27.16.36c-9.2,0-15.24-.07-20.33-.11a84.9,84.9,0,0,0-18.94,4.36c-8,3.09-13.93,10.76-18.69,19.6-.47,3-1.09,6.44-2,10.51-2.25,10.84-3.31,16.25-4.36,21.67s-2.15,11.09-4.44,22.18c-2.44,11.53-4,17.31-5.6,22.91-1.49,5.24-2.87,10.22-5,20.54-2.33,11.2-3.67,16.84-4.95,22.29s-2.51,10.65-4.76,21.38c-.15.84-.33,1.71-.55,2.58,1.16,7.89,3.67,15.74,10.44,19.82,7.09,4.25,15.71.87,23.53,3.27,3.64.18,7.31.4,10.87.8,5.93.62,10.47,1.2,15.31,1.45a299.3,299.3,0,0,0,30.22-.07c4.95-.25,10.47-.76,16.36-1s11.56-.4,17.16-.36l64.54-.25c5.16-.11,10.15-.36,15.71-.62.51,0,1,0,1.49-.07,5.42-2.15,9.78-5.82,11.56-12.8A47.51,47.51,0,0,0,2128.88,2596.79Zm-14.11-924.41a116.71,116.71,0,0,0-.73-17.67c-.95-7.67-2.55-15.6-4.4-23.82l-2.91-12.62-2.91-13c-1.82-8.29-3.75-16.47-5.89-24.54-1.09-4-2.22-8-3.42-12l-3.85-12.25-7.42-25.09a148.6,148.6,0,0,0-8.18-21.38c-3.16-6.25-7.6-12.76-12.51-19.89-2.47-3.56-5.05-7.31-7.67-11.27-1.27-2-2.58-4-3.82-6.18l-3.38-5.78c-4.33-7.42-8.62-14.69-13.09-21.67-2.25-3.53-4.51-6.95-6.84-10.33s-4.73-6.65-7.27-10.15q-7.47-10.2-15.34-20-3.93-4.85-8-9.6l-4.07-4.65q-1.91-2.13-3.93-4.25c-5.42-5.64-11.49-11.16-17.89-16.87s-13.16-11.49-20-18.22c-6.58-6.47-12.51-12.73-18.29-18.25-2.87-2.73-5.75-5.31-8.58-7.6-2.55-2.07-6.51-4.95-10-7.67-7.05-5.38-13.71-10.65-20.33-15.42a204.23,204.23,0,0,0-20.25-12.84q-10.85-6.16-22.14-11.71c-7.45-3.71-15.34-7.45-22.65-10.62-7.53-3.24-15.27-6.18-23.24-9s-15.89-5.49-24.44-8.4c-8.36-2.87-16.4-5.71-24.25-8.18-3.93-1.24-7.82-2.36-11.64-3.35s-7.56-1.85-11.64-2.69c-8-1.6-16.25-2.91-24.54-4l-12.58-1.6-6.36-.73-3.09-.33-2.51-.18c-6.76-.44-14.51.15-23.05.95-4.29.4-8.76.84-13.49,1.16q-3.55.22-7.2.33c-2.47.07-5.09.11-7.2.07-4.47,0-9-.07-13.6-.25l-13.27-.58c-8.25-.4-16.54-.44-25.2-.44s-16.8.22-25.85.4l-26,.18c-4.11.07-8,.25-12.18.55s-8.95.62-13.6.76-9.27.22-13.78.22-9.24-.07-14-.33-9.75-.73-14.4-1.31-8.73-1.24-12.55-1.64-7.67-.62-11.67-.76-8-.11-12.55-.18c-8.87,0-18.29-.36-27-.91s-16.62-.73-25.16-.76a168.85,168.85,0,0,0-23.56,1.09c-3.78.47-8.22,1.24-13.09,1.82-3.67.44-7.42.73-11.09.91s-7.89.44-12.84.44c-14.33,0-21.49,0-28.65.07s-14.44.07-28.87.07a184.27,184.27,0,0,1-25.09-1.49c-3.35.47-7.05,1-10.95,1.42a242.16,242.16,0,0,1-28.14.91c-8.87,0-18.29-.44-26.73-.87s-16.62-.47-25.42-.51c-18.84-.18-35.38-2.15-50.14-.44-17.09,1.75-33.85,3.82-49.63,7.2-14.91,3.13-30.62,9.53-48,15.16-16.69,5.27-32.62,10.18-47.56,16.69-16.84,7.2-32.91,12.55-46.22,20-6.07,3.31-12.25,8.11-18.73,13.53s-13.42,11.42-21.53,17c-15.38,10.47-30.36,18.36-42.4,28.18l-.11.07a12.73,12.73,0,0,1-17-18.94c13.85-13.64,29.49-22.87,42.14-33,6-4.73,11.82-10.55,18.44-16.62s13.82-12.51,22.73-18c15.2-9.27,30.58-15.27,44.4-21.56,3.67-2.65,8.29-6.11,8.8-9.31a3.51,3.51,0,0,0,0-.87,31.34,31.34,0,0,0-6.51-4.15c-2.87-.11-6.11-.18-10-.18-8.15,0-16.84,2-26,4a196.69,196.69,0,0,1-23.6,4.29,486.44,486.44,0,0,0-49.09,7.42c-3.2.69-6.4,1.35-9.56,2-13.64,2.8-26.51,5.42-38.91,9.38-6.22,2-12.47,3.75-18.51,5.38-10.47,2.87-20.36,5.56-29.31,9.53-7.82,3.45-15.38,8.73-23.42,14.33-6,4.18-12.22,8.55-19,12.4s-13.89,7.13-20.69,10.22c-8.8,4-17.13,7.75-23.93,12.65-8.29,6-16,13.31-24.07,21.05-4.25,4.07-8.65,8.29-13.24,12.36-3.64,3.24-7.31,6.4-11,9.56-9.38,8.07-18.25,15.71-26,24.18-10.47,11.49-19.74,24.07-29.56,37.42l-1.42,1.89a476.59,476.59,0,0,0-27.2,41.89c-8.22,14-15.2,29.13-22.22,44.65-3.05,6.8-6.58,13.24-10,19.45-4.84,8.84-9.42,17.2-12.18,25.64-2.62,8-3.71,17.13-4.87,26.84-.58,4.76-1.2,9.64-2,14.55.11,25.6-.62,53.05,4.55,77.63,2.65,12.76,8.4,16.29,21.16,17.34.84,0,1.64,0,2.44,0,2.29-.11,4.33-.25,6.29-.44,19.05-5.56,32.44-22.69,35.16-44.87,2.18-17.89,1.56-34.84,8.55-51.31,3.13-11.82,6.8-23.2,10.36-34.29,3.6-10.76,6.11-22.58,10.07-35.31a129.67,129.67,0,0,1,7.64-19.31,171.13,171.13,0,0,1,10.22-17.24c3.49-5.31,6.91-10.25,9.93-15.09l2.18-3.6,2.22-3.93c1.64-2.84,3.31-5.64,5-8.36,6.84-10.91,14.15-21.05,21.05-31a12.73,12.73,0,0,1,21.16,14.15c-6.69,10.47-13.42,20.54-19.24,30.69-1.45,2.51-2.84,5.05-4.18,7.6l-2.18,4.18-2.44,4.36c-3.27,5.71-6.62,11-9.71,16.07a153.94,153.94,0,0,0-8,14.73,97.64,97.64,0,0,0-5.31,15.16c-3,10.84-5.13,23.2-8.8,35.89-.15.51-.29,1-.44,1.49q-2.62,23.84-5.2,47.67c0,4.47.11,8.95.18,13.45.18,14.58-2.36,33,5.56,45.93a25.06,25.06,0,0,0,11.05,10c5.67-.22,9.67-.58,13.78-1s8.22-.76,13.75-1.05a41.79,41.79,0,0,0,9.89-7.2,53.68,53.68,0,0,0,9.89-14.15A450.54,450.54,0,0,1,640,1607.15a12.74,12.74,0,0,1,24.87,5.35v.07a421.53,421.53,0,0,0-4.47,44.22,46.4,46.4,0,0,0,2.36,9.67c3.71,9.71,15.93,21.93,27.2,14.84,8.44-5.31,8.62-23.13,9.24-34.4,0-10.29.29-25.74,1.64-44,.73-9.82,2.18-19.93,3.71-30.62,1.16-8.33,2.4-16.91,3.27-25.49l1.13-11c1.53-15,3.09-30.47,5.35-45.38,3.13-20.47,6.29-40.22,10.8-56.94,4-14.94,16.18-60.36,47.74-58.07,16.62,1.2,38.22,11.42,46.83,53.27,3.24,15.74,4.4,33.45,5.6,54.94.36,6.4.62,12.91.87,19.38.47,11.38.91,22.11,1.85,32.44a166.41,166.41,0,0,0,7.27,36.87c13.09,2.76,19.56,4,26.44,5.27s13.85,2.65,27.67,5.56a278.59,278.59,0,0,1,28.62,7.35,260.74,260.74,0,0,0,25.45,6.55c13.67,2.87,20.47,4.29,27.31,5.75s13.64,2.91,27.27,5.75c13.2,2.8,19.71,3.82,26.58,4.95s14.22,2.29,28.25,5.24c13.49,2.84,20,4.07,27,5.38,6.8,1.27,13.89,2.58,27.71,5.49,13.31,2.8,19.82,3.89,26.69,5.05s14.15,2.36,28.14,5.31c17.82,3.75,34.44,10.15,48.36,15.89,14.87,6.15,30.65,13.16,45.53,22.84,11.49,7.49,17.05,11.67,22.47,15.74,5.16,3.85,10,7.53,20.51,14.33l5,3.27c13.78,6,27.09,8,38.36.15,3.31-3.45,6.73-7.09,10.15-10.87.25-.4.55-.76.84-1.2a9.2,9.2,0,0,1,2.84-2.95c3.09-3.6,6.22-7.35,9.38-11.13,8.47-10.18,17.2-20.73,27.05-30.11a189.73,189.73,0,0,1,47.78-33,18.67,18.67,0,0,1,8.33-1.93c23.34.29,28.73,2.15,43.56,10.76,4.22,2.44,9.45,5.49,17.31,9.45l6.15,3.09c6.58,3.27,13.56,6.8,20.8,10.69,5.31,1.45,10.62,1.89,15.31.62,5.27-6.36,10.76-11.93,15.85-17a173.21,173.21,0,0,0,12.22-13.2,93.33,93.33,0,0,0,12.11-19.49c6.29-13,12-19.67,31.24-27.67a17.93,17.93,0,0,1,7.71-1.38c6.29.25,12.55,0,19.13-.25,10.44-.4,21.2-.84,32.47.8,12.11,1.75,22.94,5.42,33.42,8.95,6,2,11.71,4,17.2,5.35,4.87,1.24,9.75,2.36,14.55,3.45,11.89,2.76,24.18,5.6,36,9.89,13.6,4.95,25.85,11,37.74,16.8q4.91,2.45,9.82,4.8c5.71,2.73,11.75,5.24,17.6,7.67,10,4.18,20.36,8.47,29.93,14.22,15.82,9.45,29.85,19.71,42.25,28.8l1,.69c3.75,2.76,7.42,5.38,11,8,11.31,8.11,22,15.78,30.84,23.6,1.31,1.16,2.51,2.25,3.64,3.31,10.87,6.58,22,12.69,33.38,18.44a137.89,137.89,0,0,0,52,5.24c4.51-.91,9-1.89,13.45-3,6.73-2.76,13.64-5.24,20.54-8.33,22.11-9.85,25.71-29.24,27.38-51.42C2114.59,1673.25,2114.7,1672.82,2114.77,1672.38Zm-42.65,384.28a44.76,44.76,0,0,0,2.76-22.22c-1.85-15.09-12-30.4-25.64-43.24s-30.47-23.82-48.14-33.24a18,18,0,0,1-5.27-4.29l-.91-1.05-3.45-4.15-3.75-4.4c-2.51-2.95-5.13-5.89-7.75-8.84-5.2-5.93-10.62-11.71-16.11-17.45a432.15,432.15,0,0,0-32.18-30.44,47.27,47.27,0,0,0-19.05-7.49c-6.91.25-14.73,1.82-21.05,6.65-5.2,4-9,10.15-11.35,18.14.65,10.29,10.73,18.51,20.51,24.14,2.58,1.35,5.2,2.69,7.78,4.11,1,.47,2,.95,2.91,1.35a9.54,9.54,0,0,1,2.36,1.56c4.55,2.62,9.09,5.42,13.64,8.55a116.07,116.07,0,0,1,14.62,11.85c1.16,1.13,2.33,2.36,3.49,3.6s2,2.18,3,3.31c1.93,2.15,3.75,4.44,5.6,6.69a158.81,158.81,0,0,1,19.24,30.18c5.35,10.84,8.87,22.14,12.25,31.05s7,15.45,12.51,21.56a92.36,92.36,0,0,0,20.44,16.33c7.42,4.33,15.2,7.2,22.4,7.85s13.6-.76,18.84-4.15S2069.32,2063.72,2072.12,2056.66ZM1944,1796.52c9.38-10.55-2.22-16.87-15-20.18-26.62-1.67-52.14-2.91-76.47,1.16-19.16,3-37.78,8.73-52.69,18.22s-25.34,22.73-28.73,38.54c-1.64,7.38-1.13,13.42,1.71,19.49s8.18,12.29,15.05,17.93c.4.33.84.62,1.24.95a18.27,18.27,0,0,1,9.31,6.69c12.11,8,26.22,14.84,40.54,21.42l1.35.58c4.36.29,8.51-.76,11.82-4.44,4.11-14.33,11.38-25.6,21.89-33.56.47-.4,1-.69,1.53-1.05a24,24,0,0,0,5.49-5.75c2.87-4.87-1.75-6.4-5.35-9.31-.87-.73-1.71-1.49-2.51-2.25-7.71-4.69-15.53-9.16-23.53-13.31l-.07,0a12.75,12.75,0,0,1,10.76-23.09q12.22,5.13,24.18,10.95c14.18,3.53,28.91.44,41.09-10a9,9,0,0,1,2.18-1.42C1932.85,1803.83,1939.76,1801.32,1944,1796.52Zm-25.27-69.82a7.2,7.2,0,0,0-.25-6.65c-2.11-1.53-4.25-3.09-6.44-4.65-3.67-2.62-7.42-5.31-11.27-8.11l-.95-.73c-12.36-9-25.13-18.33-39.49-26.94-7.27-4.36-16-8-25.24-11.85-6.25-2.62-12.73-5.31-19.31-8.44-3.35-1.6-6.73-3.27-10.15-4.95-11-5.42-22.36-11-34.14-15.27-9.75-3.53-20.44-6-31.74-8.62-5.05-1.2-10.18-2.36-15.31-3.67-6.84-1.71-13.49-4-19.89-6.15-9.35-3.13-18.14-6.11-27-7.38-8-1.16-16.65-.84-25.82-.47-5.75.25-11.67.47-17.89.4-6.11,2.62-6.47,3.42-8.91,8.4a130.07,130.07,0,0,1-16.22,26.07,189.76,189.76,0,0,1-15,16.4c-7.49,7.53-15.24,15.34-21.05,24.65-4.22,6.8-7.49,15.74-10.95,25.2-3,8.15-6.11,16.62-10.25,25.2-7.38,15.2-13.56,31.49-19.16,47-4.47,16.73-10.84,35.74-9.05,51.93,1.24,11.64,8.25,20.14,17,27,5.89,3.24,12,6.62,23.42,14,9.16,6,14.58,9.64,19.2,12.8a165.41,165.41,0,0,0,48.07,10.33c10.36-.76,22.62-1.78,35.85-3.85,9.16-1.45,19.24-3.89,29.85-6.47,8.22-2,16.73-4,25.56-5.82a29.9,29.9,0,0,0,5.56-3.64c7.56-6.33,7.89-14.91,8.18-24a67.61,67.61,0,0,1-.33-32.11,92.05,92.05,0,0,1,16.47-35.64,108.67,108.67,0,0,1,28.18-25.64c21-13.27,44-19.85,66.58-23.49a280.4,280.4,0,0,1,47.85-3.13C1905.1,1737,1915.47,1734.49,1918.77,1726.71Zm-154.54,896.92c8-2.55,14.51-7.27,12.47-17.42s-6.65-17.49-5.85-27.05c-.47-1.71-.95-3.31-1.38-4.95-1.6-5.6-3.27-11.42-5.67-23a98.37,98.37,0,0,0-5.53-18.69,137.49,137.49,0,0,1-7.16-24.33,92.44,92.44,0,0,1-2-27.2,57.48,57.48,0,0,0-1.27-17.82c-.73-3.49-1.38-6.29-2-8.73-1.42-2.69-2.73-5.38-4-8.22-1.45-3.31-2.65-8.76-5-11.6-4.87-5.93-11.82-4.95-18.18-5.09-1,0-1.93-.07-2.87-.11-2.18.36-4.18.76-6.25,1.2a130,130,0,0,1-30.47,3.16,127.72,127.72,0,0,1-30.58-3.27,90.57,90.57,0,0,0-22.91-2.47c-13.56,0-20.44-.11-27.09-.25s-13.24-.25-26.44-.25-19.38.25-26.11.47-13.71.51-27.42.51c-13,0-19.31.47-26,1-7.09.55-14.4,1.09-28.8,1.09a159.21,159.21,0,0,0-25,1.67,200,200,0,0,1-29.78,2c-13.64,0-20.47,0-27.31.07s-13.75.07-27.49.07h-3.35a84.86,84.86,0,0,0-11.05,4c-13.75,6.29-21.09,18.22-26,31.49a129.39,129.39,0,0,0-2.22,16.07,176.26,176.26,0,0,1-3.6,23.89,111.29,111.29,0,0,1-7.89,24.47,75.83,75.83,0,0,0-5.64,17.45c-2.29,10.73-3.31,16-4.36,21.42l-.11.55a8.39,8.39,0,0,1,.15,3.05c-1.56,11.85-4.65,29,5.85,37.85a26.27,26.27,0,0,0,9.24,4.62H1307c2.55,0,5.85,0,8.95.15s6.44.36,9.82.8c6.69.76,13.64,2.69,17.85,3.71a64.4,64.4,0,0,0,12.47,1.71c4.22.18,9.71.07,14.8,0s10-.4,15.34-.76,11.45-.73,17.13-.84l16.07-.22a143,143,0,0,0,14.25-1.16c4.91-.65,11.35-1.53,17.42-1.85s11.89-.47,17.71-.4a180,180,0,0,1,18,.95c6.18.65,11,1.42,15.64,1.75s9.56.47,14.62.47a102.14,102.14,0,0,0,13.71-.76c4.18-.44,8.91-1.6,15.45-2.62a136.68,136.68,0,0,1,18.87-1.49c6.07-.11,11.56,0,17.64.29s12.18,1,17.13,1.49,9.56.76,14.62.87l7.82.07c2.95,0,5.89.11,8.95.25a180.4,180.4,0,0,1,18,1.82,138.34,138.34,0,0,0,14.25,1.45c4.73.18,9.89.22,14.55.07a97.46,97.46,0,0,0,13.49-1.38c4.62-.84,11.35-2.11,17.67-2.62a174.92,174.92,0,0,1,18.25-.58c5.82.07,12,.36,18.18,1.05s11.16,1.6,15.67,2C1762.23,2623.52,1763.25,2623.55,1764.23,2623.63Zm-8.76-447.48a182.84,182.84,0,0,0,4.55-47.78c-.55-14.51-3.85-29.67-10.51-47.74s-14-32.62-22.51-44c-10.18-13.75-23.09-25.56-35.53-36.33-11.75-10.15-24.8-18-37.42-25.67l-5.27-3.2c-23.31-14.18-39.78-21.64-45.82-24.18a22.05,22.05,0,0,1-7.67-5.6,18.2,18.2,0,0,1-7.82-2.84c-11.2-7.27-16.8-11.13-22.18-14.84s-10.62-7.31-21.42-14.36c-10.4-6.76-15.71-9.67-21.34-12.76-6-3.24-12.15-6.62-23.71-14.18-10.8-7-16.14-10.33-21.78-13.82s-11.35-7-22.47-14.29c-8.58-5.56-13.85-9.38-18.18-12.73a156.63,156.63,0,0,0-63.82-11.45,121.87,121.87,0,0,0-32.65,9.78c-14.4,6.65-26.54,15.6-36,26.62-11.42,13.35-18.22,25.67-21.31,38.87a73.31,73.31,0,0,0-1.75,17.45,10.67,10.67,0,0,1,.22,2.22c-.29,16,7.38,30,14.29,44.4l8.58,10.55c4.84,6.18,9.27,12.11,13.78,18.47,1.56,2.18,3.13,4.47,4.65,6.84a72.64,72.64,0,0,0,20.91,11.64c14.58,4.8,31.09,5.38,47.09,4.69,1.67-.29,3.38-.62,5-.95,5.13-1.05,10.11-2.18,15.49-3.49s11.09-2.55,16.58-3.6c11.16-2.15,21.71-3.67,32.47-5.56s21.6-3.67,32.4-5.27a12.74,12.74,0,0,1,5.05,24.94c-10.58,2.69-21.09,5.31-31.71,7.89l-28.65,7c-3.78,2.29-7.49,5.24-7.67,9.2-.18,3.24,2.65,4.8,4.58,7.09l.29.4c.11.11.25.22.36.33a7.65,7.65,0,0,1,2.69,2.44,139.17,139.17,0,0,1,23.09,29.89,131.28,131.28,0,0,1,17.74,55.45c1.78,22-1,41.71-8.25,58.43-.11.29-.25.51-.36.8-.84,4-.73,8,2.62,10.33,4.33,2.95,11.05,4,17.09,4.62,13.89,0,21,.47,27.89.95,6.62.44,12.87.84,25.74.84,13.6,0,20.4.11,27.2.22s13.31.22,26.65.22c13.75,0,20.76.22,27.53.44s13.16.44,26.33.44h2.95c19.38-5.67,39-2.51,59.34-5.85C1737.07,2215,1748.56,2196.77,1755.47,2176.15ZM1515.7,1729.83c3-10.58,4.91-21.45,4-31.13-1-11.16-12-15.82-20.73-22.36l-5.56-2.8c-8.8-4.44-14.76-7.89-19.13-10.44-8.76-5.05-9.67-5.6-21.31-5.78a151.43,151.43,0,0,0-35,24.8c-8.33,8-16.4,17.67-24.22,27.05-3.64,4.36-7.2,8.65-10.8,12.8-1.93,2.18-3.85,4.33-5.75,6.4-5.49,10.47-7.27,21.34,2.95,31.78.69.69,1.38,1.31,2,2,1.64,1,3.35,2.11,5.2,3.35,10.76,7,16.11,10.29,21.74,13.75,3,1.82,6,3.71,9.93,6.15a9.28,9.28,0,0,1,3.24,1.42c15,10.25,32.94,23.31,51.93,17.49,7.67-2.36,13.64-8.62,18.58-16.14,1.45-3.75,2.87-7.49,4.18-11.2C1502.21,1762.38,1508.42,1745.72,1515.7,1729.83Zm-68.36,451.62a105.19,105.19,0,0,0,1.78-31.53,102.06,102.06,0,0,0-13.82-43.09c-8.51-14.51-18.73-25.78-30.44-33.53-1.45-.95-2.91-1.85-4.4-2.73a114.54,114.54,0,0,0-50-6.65l-12.15,2.58-31.82,7-32.22,6.95c-10.91,2.29-22.36,4-32.51,5.89-10.33,1.93-21,4.11-31,6.51-5,1.2-9.93,2.55-15.45,4s-11.13,2.8-16.65,4l-8.07,1.75c-2.18.44-4.29,1-6.4,1.64a75.1,75.1,0,0,0-12,4.91,70.65,70.65,0,0,0-33.27,37.89c-.4,1-.73,2-1.09,3.09l-1.05,3.42-2.51,8.22c-1.71,5.49-3.82,11.31-5.75,16.33s-3.45,9.53-5,14.47-3,10-4.47,15.24l-8.65,31.56c-3.16,11-5.89,20.22-8.15,30.58-1.16,5.27-2.55,11.16-4,16.69s-3.05,10.87-4.84,16.47-3.89,11.45-6,16.69-3.75,9.42-5.31,14.22-3.05,9.78-4.47,14.8-2.58,9.82-3.71,14.94-2.47,11.09-4,16.65-3.09,11-4.65,16.25l-4.87,16-1.75,5.6a18,18,0,0,1-1.78,5.71l-1.27,4.11-4.69,15.71c-1.67,5.45-3.56,11.13-5.56,16.54s-3.78,9.93-5.38,14.76-3.13,9.89-4.47,14.8-2.51,9.6-3.45,14.47c-.58,3.05-1.24,6.69-2,10.4-.76,11.24-1.05,27.53,13.16,28.51,12.8.87,22.47-12.47,29.2-21.38l.22-.22,2-3.6c2.8-4.76,5.78-9.53,8.4-13.82,5.24-8.51,10.11-17.42,15.05-26.58,2.44-4.55,4.73-9,7.13-13.71s4.91-9.6,7.45-14.36c10.18-18.91,20.44-37.13,30.58-55.53l15.16-27.67c2.55-4.65,5.13-9.27,7.71-13.85s5.42-9.45,8.29-14.22,6-9.42,8.65-13.6,5.2-8.44,7.75-12.84l7.56-13.49,7.38-13.6c2.55-4.69,5.16-9.49,7.82-14.15l7.85-13.6c2.55-4.4,4.87-8.65,7.2-13.2s5-9.64,7.71-14.44,5.45-9.38,8.44-14.11,6.07-9.45,9.53-14l9.49-12.29c2.91-3.93,5.75-8,8.62-12.29l0-.11a12.77,12.77,0,0,1,22.22,12.44c-.22.47-.47,1-.69,1.45-2.4,8-5.31,18.11,1.16,24.69,2.4,2.47,5.89,4.22,9.6,5.64l4,.55c13.49,1.85,25.74,3.42,38.62,3.42a102.3,102.3,0,0,0,23.45-2.33,141,141,0,0,1,28.58-2.95,9.32,9.32,0,0,1,3.89-.62c18.73.84,45.23-1.38,56.47-17.93.22-.36.44-.73.62-1.05.36-.58.69-1.2,1-1.82s.73-1.49,1.09-2.22a34,34,0,0,0,2.36-9.09A9.4,9.4,0,0,1,1447.33,2181.46ZM1356.06,1804c3.53-2.47,5.89-5.71,5.16-10.07a8.82,8.82,0,0,0-.87-2.55c-5.93-3.64-9.89-5.78-14-8a277.31,277.31,0,0,1-24-14.15c-11.49-7.49-17.09-11.67-22.47-15.74-5.16-3.89-10-7.53-20.51-14.36-11.49-7.49-17.05-11.67-22.47-15.71-5.16-3.89-10-7.53-20.51-14.36-12.36-8-26.33-14.22-39.56-19.71-12.36-5.13-27.05-10.76-41.93-13.89-13.31-2.8-19.82-3.89-26.69-5.05s-14.15-2.36-28.14-5.31c-13.45-2.84-20-4.07-27-5.38s-13.89-2.58-27.74-5.49c-13.24-2.8-19.71-3.82-26.58-4.95s-14.22-2.29-28.29-5.24c-13.67-2.87-20.47-4.33-27.31-5.78s-13.64-2.87-27.27-5.75a274.72,274.72,0,0,1-28.58-7.35,253.12,253.12,0,0,0-25.45-6.55c-11.45-2.4-17.89-3.64-23.85-4.8-13.85,2.47-26.54,8.58-27.71,23.93a10.52,10.52,0,0,1-.25,1.6,33.54,33.54,0,0,0,8.69,14.91l65.78,28.29a326,326,0,0,1,44.91,8.95,174.22,174.22,0,0,1,43.38,8.36c16,5.2,34.14,11.09,50.29,22.84a182.74,182.74,0,0,1,31.85,29.42c10.51,9.64,22.94,17.16,32.36,3.38a9.1,9.1,0,0,1,3.05-2.87c.22-.18.4-.4.62-.55a12.75,12.75,0,0,1,17.05,2.51l.07.11c9.24,11.49,18.25,23.13,27.34,34.65.62.76,1.2,1.53,1.82,2.29a18.17,18.17,0,0,1,6.47,8.15c1.71,2.15,3.45,4.33,5.2,6.44,4.4,5.35,9.45,11,14.25,17l13.75,17.27c4.4,5.49,8.87,10.44,14,16.44,9.75,11.64,18.22,23.09,26.8,34.76,3,2.8,6.44,4.95,10.36,4.84s6.62-2.58,8.58-5.85a105.77,105.77,0,0,1,4.4-11.35l0,0a8.78,8.78,0,0,1,1.27-2.55,139.28,139.28,0,0,1,19.45-28.94,133.33,133.33,0,0,1,45.93-34.07A147,147,0,0,1,1356.06,1804Zm-136.21,238.17c39.56-15.78,37.34-48.76,24-79.31-3.2-4.73-6.29-9.56-9.09-13.85-3.89-5.85-7.82-11.53-12.11-17.6s-8.58-12.33-12.69-18.47c-8.07-11.93-16.4-24.11-24.8-35-4.25-5.35-9.35-11.56-13.78-17.78l-3.78-5.35a171,171,0,0,0-13.09-11.93c-10.76-8.51-25.38-11.89-32.22,3.56a38.43,38.43,0,0,0-2.95,13.53c.15,2.15.25,4.25.25,6.44,0,1.67-.11,3.31-.18,4.91.07,1.27.11,2.55.18,3.78a8.47,8.47,0,0,1-.87,4.33c-1.78,14.29-6.07,27.56-10,39.64l-1.93,5.93a7.65,7.65,0,0,1-.18,5.85c-8,19.27-16.8,39.67-16.58,60.94.15,14.55,5.16,26,12.73,36.33,2.87,2.87,5.78,5.67,8.87,8.29C1142.14,2054.22,1189.92,2054.08,1219.85,2042.15Zm-72.22,559.95c-.65-2.18-1.24-4.44-1.71-6.69-1.09-5.38-1.82-9.49-2.29-12.91-.15-.25-.25-.51-.36-.73a8.51,8.51,0,0,1-.62-7.31c0-.15,0-.33-.07-.47a147,147,0,0,0-2.8-17.85c-2-9.82-3-14.76-4-19.67s-1.85-9.64-3.85-19.2c-1.35-6.44-2.15-10.91-2.73-14.62-.55-.87-1-1.82-1.56-2.73-10.36-16.62-20.51.11-25.6,11.27a8.67,8.67,0,0,1-2.44,3.2c-1.78,3.05-3.56,6.07-5.45,9.13-.55.87-1.05,1.71-1.6,2.55-5.2,10.84-7.78,19.82-3.49,31.93,1.6,4.47,3.24,8.73,4.58,13.05,1,2.11,2,4.29,2.95,6.69a63.23,63.23,0,0,1,4.33,21.53c0,1.45,0,2.84-.07,4.22,3.85,9.38,9.85,18.94,18.58,21.53,2.4-.18,4.87-.36,7.53-.62,1.6-.15,3.24-.29,4.91-.4.87-.36,1.71-.73,2.62-1.2C1142.91,2618.32,1146.94,2610.5,1147.63,2602.1Zm-61.13-475.15c3.24-11,5.31-22.22,3.6-33.71a56.77,56.77,0,0,0-2.55-10.29l-28.69-46.29a39,39,0,0,0-13.16-10c-12.25-5.38-27.31,3.35-41.2,8a77.73,77.73,0,0,1-9.78,4c-14.25,4.62-28.84,5.16-43.09,5.16-2.22,0-4.4,0-6.62,0H942.3a24,24,0,0,0-8.36,3.6c-10.15,7.35-3.16,22.76.36,31.78a8.52,8.52,0,0,1,.44,1.49c.87,1.78,1.67,3.49,2.44,5.16a170,170,0,0,0,11.6,21.45,261.43,261.43,0,0,1,13.71,24.76,211.29,211.29,0,0,0,12,21.67,78,78,0,0,0,14,17.45,114.29,114.29,0,0,1,19.38,24.22c7.27,11.75,10.58,17.93,13.82,23.93,1.67,3.13,3.35,6.22,5.56,10.07,8.76,7.49,18.91,12.47,26.25-1.13.87-1.56,1.6-3.27,2.36-4.95l7.05-25.74c1.49-5.31,3-10.62,4.73-16.18s3.71-11.27,5.67-16.44,3.56-9.64,5.13-14.58l2.25-7.42,1.35-4.4c.51-1.53,1-3.09,1.6-4.62C1084.47,2131.6,1085.45,2129.28,1086.51,2126.95Zm-3.27-260.54c0-10.73-3.85-21.78-8-33.49-1.13-3.27-2.25-6.55-3.31-9.78-3.89-12-9.53-27.31-18.69-39.93a143.05,143.05,0,0,0-31.53-31.09c-11.49-8.36-26-13.09-40.14-17.67a134.57,134.57,0,0,0-42.87-6.95c-4.15,0-8.25-.15-12.4-.25-3.75-.11-7.45-.22-11-.22-7.75,0-14.91.51-21.05,2.51-8.8,2.84-17,9.42-25.74,16.4-3.56,2.84-7.24,5.78-11.05,8.58-4.44,3.2-8.95,6.07-13.31,8.84-9,5.75-17.56,11.2-22.51,18-6.87,9.42-10.87,22.07-15.13,35.42-.65,2-1.27,4-1.93,6-5.16,15.93-7.71,30.22-7.71,43.6,0,14.76,4.22,28.87,8.87,43.24l1.6,4.95c4.33,13.53,8.4,26.29,15.49,36a144.92,144.92,0,0,0,31.78,31.64c8.62,6.25,20.14,9.82,32.36,13.6,2.91.91,5.85,1.82,8.8,2.76,15,4.87,28.54,8.91,42.94,8.91h6.51c14.11.11,27.38.18,38.25-3.35,8.62-2.8,16.84-9.42,25.53-16.4,3.64-2.95,7.42-6,11.38-8.87,4.22-3.09,8.55-5.89,12.73-8.58,9.24-6,17.93-11.56,23-18.58,7-9.67,11.16-22.62,15.56-36.33l2.44-7.6C1078.62,1894.08,1083.24,1879.94,1083.24,1866.41Zm-19.78,746.41a86.34,86.34,0,0,0,1.13-12.76,9.58,9.58,0,0,0-.07-1,10.3,10.3,0,0,1-1-3.49c-1-10-8.51-16.29-17.31-17.27a67,67,0,0,1-22.51,4.11,60.47,60.47,0,0,1-9.42-.76,57.52,57.52,0,0,1-23.67-9.78c-.62-.25-1.24-.47-1.85-.69-10.15-3.53-19.78-3.05-29.67-1.24-3.05,1-6.07,2-9.09,2.95-10.84,3.38-21.27,6.22-31.93,9.09l-31.78,8.73c-10.25,2.76-20.14,5.64-28.58,9.27a66.77,66.77,0,0,0-11.35,6.11c-1.16.8-2.29,1.64-3.38,2.44-2.07,4.4-2.22,8.8,3.71,11.35a63.53,63.53,0,0,0,10.15,3.27c3.42-.22,6.8-.51,10.51-.91,5.45-.58,11.64-1.05,17.42-1.24s11.49-.18,16.91-.18c11,0,22.07.25,32.54.33l64.8.25c5.71,0,11.64.11,17.71.62s11.82,1.31,16.44,1.75c4.11.4,8.29.55,12.62.62,6.47-1.56,12.47-4.15,17.27-8.55Zm-42.58-272.9a154.77,154.77,0,0,0-12.55-71.38c-1.42-2.33-3-4.95-4.87-8-7.31-11.75-10.62-18-13.85-24-3.09-5.75-6-11.2-12.69-22a80.21,80.21,0,0,0-14-17.49,114,114,0,0,1-19.34-24.18,255.57,255.57,0,0,1-13.75-24.76,204.33,204.33,0,0,0-12-21.67,214.09,214.09,0,0,1-13.64-25.27,169.71,169.71,0,0,0-8.36-16.14,143.75,143.75,0,0,0-90.72-41.67,159.08,159.08,0,0,0-17.78,1.24,209.46,209.46,0,0,1-26.91,1.53c-13,0-19.6-.44-26-.84-6.11-.36-11.85-.73-23.74-.73s-17.85.25-24,.55-12.84.58-25.67.58c-12.55,0-18.8,0-25.05-.11s-12.33-.11-24.69-.11c-12.95,0-19.49-.36-25.85-.69-6.15-.33-12-.65-23.89-.65-12.25,0-18.22.11-24.54.25s-12.58.22-25.2.22c-11.82,0-17.56.4-23.64.84l-6.65.44c-3.09.51-6.18,1.13-9.27,1.93-14.55,3.75-22.07,12.47-16.73,27.82a109.55,109.55,0,0,0,6.76,14.73,142.1,142.1,0,0,1,10.33,14.73,144.27,144.27,0,0,1,13.35,26.76,108.19,108.19,0,0,0,10.4,20.87,155.4,155.4,0,0,0,14.07,19.64,213.2,213.2,0,0,1,30.44,49.2A148.81,148.81,0,0,0,552,2242.91a113.72,113.72,0,0,0,14,18.69,146.11,146.11,0,0,1,17.89,23.85c2.51,4,4.87,8.15,7.24,12.25,5.67,9.82,11,19.09,17.78,26.25,2.15,2.29,4.33,4.62,6.47,7,9,9.67,17.42,18.8,26.87,25.42,7.2,5,16.47,8.36,26.33,11.89,5.38,1.93,10.91,3.89,16.44,6.29,3.71,1.6,7.42,3.27,11.16,5,10.95,5,21.31,9.75,31.78,11.89,10,2.07,21.24,1.78,33.05,1.53,4.36-.11,8.69-.22,13.05-.22,14.4,0,21.38-.4,28.8-.84s15.42-.91,30.87-.91a136,136,0,0,1,33.74,3.75,100.11,100.11,0,0,0,25.89,2.87c15,0,22.51.07,30,.15,2,0,4.11,0,6.33.07,18.58-4.29,37.85-1.53,56.25-6.33C1010.66,2385.05,1016.66,2362,1020.88,2339.92ZM990,2450c.65-5.56-.4-10.69-6.76-13.45-23.42-10.15-34,19.85-38.44,36a4.18,4.18,0,0,1-.22.62l-8,38.07c0,3.49-.36,7-.33,10.87.07,10.15,7.05,14,16.58,11.53,1.75-.62,3.45-1.27,5.2-1.93,6.51-3.2,11.05-8.8,14.22-15.34.29-1.13.62-2.29.87-3.42,1.13-4.76,1.89-9.42,3-15.31s2.51-11.82,4-17.38,3.13-10.91,4.95-16.51C986.62,2459,988.37,2454.25,990,2450Zm-124.54,108.8a1.3,1.3,0,0,0,.4-.15l-.33-.22A1.6,1.6,0,0,1,865.43,2558.79Zm-57.89-814.7c4-5.6,9.49-12.07,2.4-17.64a13,13,0,0,0-1.89-1.24l-4-.65a117.78,117.78,0,0,0-23.27-2c-12.55,0-18.65.4-25.09.84-6.8.47-13.78.95-27.6.95-13.56,0-20.47-.33-27.16-.65s-12.73-.58-25.45-.58c-13.82,0-20.87-.51-27.64-1-1.09-.11-2.15-.18-3.2-.25-.33,0-.65.15-1,.18a17.81,17.81,0,0,1-5.24-.55c-4-.18-8.87-.29-15.56-.29a215.23,215.23,0,0,0-24.58,1.2,255.35,255.35,0,0,1-28.07,1.35c-12.73,0-18.91.33-25.45.62s-13.6.69-27.2.69a247.12,247.12,0,0,0-24.76,1.05,268.48,268.48,0,0,1-27.89,1.24,111.79,111.79,0,0,1-30.4-3.75,73.87,73.87,0,0,0-22-2.51c-13.78.18-15.78,1-24.14,4.36-4.47,1.82-10.62,4.25-19.85,7.31-10.95,3.56-23.71,10.25-40.22,21.05a125.32,125.32,0,0,0-31.74,29.64c-1.64,2.22-3.38,4.44-5.16,6.73-7.78,9.93-15.13,19.34-18.36,30.58-2,6.95-1.49,16.4-.87,27.31.36,5.85.69,11.89.69,18.29,0,3.71-.07,7.42-.15,11.13-.25,12.33-.51,24,2.55,33.42,3.89,12,10.76,24.54,21.53,39.34,7.27,10,17.27,19.38,32.47,30.44,13.13,9.56,25.93,16.29,39.2,20.58a148.59,148.59,0,0,0,31.13,6.55c.11,0,.25,0,.36,0,2.33.22,4.69.44,7,.55a17.87,17.87,0,0,1,5.38-.8,242.85,242.85,0,0,1,26.62,1.27,203.45,203.45,0,0,0,23.16,1.13c11.82,0,17.53-.4,23.64-.84,6.4-.44,13.05-.91,26.14-.91,12.25,0,18.18-.11,24.51-.22s12.62-.25,25.24-.25c12.91,0,19.49.36,25.85.69,6.15.33,11.93.65,23.89.65,12.51,0,18.76.07,25.05.11s12.33.11,24.69.11c12,0,17.85-.25,24-.55s12.84-.58,25.67-.58c13,0,19.64.4,26,.8,6.11.4,11.89.76,23.74.76a174.22,174.22,0,0,0,22.84-1.31c3.45-.4,7-.8,11.49-1.09,5.93-2.36,10.58-5.71,11.6-10.8a20.18,20.18,0,0,0-.84-9.89A176.44,176.44,0,0,1,793.43,1972c-10.51-14.44-15.71-30.65-20.73-46.33l-1.53-4.84c-5.38-16.54-10.65-34.36-10.65-54.43,0-17.27,3.13-35.2,9.49-54.8.62-2,1.24-3.89,1.85-5.85,4.95-15.53,10.07-31.6,20.36-45.78A78.62,78.62,0,0,1,807,1744.89C807.17,1744.63,807.35,1744.34,807.54,1744.09Zm-6.65-155.41c-.11-2-.29-3.89-.4-5.85a202.9,202.9,0,0,1-8.73-44.14c-1-11.27-1.49-22.94-2-34.25-.25-6.33-.51-12.62-.84-18.84-1.13-20-2.18-36.33-4.95-49.67a74.14,74.14,0,0,0-4.25-14.18,12.53,12.53,0,0,0-2.91-1.35,10.58,10.58,0,0,0-9.64,1.64,140.28,140.28,0,0,0-7,20.8c-4,14.91-7,33.6-10,53-2.15,14-3.64,29.05-5.13,43.56L744,1550.53c-.95,9.27-2.22,18.18-3.45,26.84-1.45,10.07-2.8,19.6-3.45,28.18-.84,11.27-1.2,21.42-1.38,29.89a32.72,32.72,0,0,0,19.71,25.38,120.84,120.84,0,0,1,22.58-1.93h2.76c5.85-3.67,9.42-9.67,12.18-16.4,1-17.78,3.09-36.07,5.67-47.56A28.6,28.6,0,0,1,800.88,1588.68Zm-92.4,99h.11l-.07-.07S708.48,1687.65,708.48,1687.69Z"/><path class="cls-9" d="M2688.82,1157.82a17.93,17.93,0,0,1-4.65,12.76l-.51.51-60.36,65.71c-1.64,3.05-2.65,6.33-.91,8.58,1.27,1.64,4.95,1.75,6.8,2.18.62.15,1.2.33,1.82.51l39.27,1.49a14.56,14.56,0,0,1,0,29.09l-96.72,3.64a17.91,17.91,0,0,1-13.89-30l.51-.51,51.23-55.78a64.5,64.5,0,0,1,4-5.89c2.4-3.16,9.09-8.55,5.53-13.05a6.63,6.63,0,0,0-3.38-2.07l-44-1.67a14.56,14.56,0,0,1,0-29.09l96.72-3.64A17.91,17.91,0,0,1,2688.82,1157.82Z"/><path class="cls-9" d="M2667,632.3a13,13,0,0,1-21.31,13.89,223.35,223.35,0,0,1-20.87-24c-6.44-8.33-12.44-16.94-18.11-25.78s-11.13-17.78-16.22-27a259.14,259.14,0,0,1-13.67-28.65,13,13,0,0,1,21.31-13.93,253.38,253.38,0,0,1,20.73,24.07q9.6,12.49,18.25,25.67c5.78,8.76,11.27,17.71,16.33,26.94A228.81,228.81,0,0,1,2667,632.3Z"/><path class="cls-9" d="M2529.56,1057.53a18,18,0,0,1-4.69,12.65l-.4.4-85.05,92.58a35.64,35.64,0,0,1-2.55,4.07c-1.31,1.82-3.75,4.15-2.95,6.44,1.13,3.24,7,4.47,9.75,5.31l.33.11,67.09,1.93a14.55,14.55,0,0,1,0,29.09L2385,1213.74a17.94,17.94,0,0,1-13.78-30l.4-.44,79.49-86.54c3.2-3.6,7-7.27,8.55-11.71,3.31-9.6-5.71-8.95-12-9.85a19.86,19.86,0,0,1-2.87-.62l-59.82-1.71a14.55,14.55,0,0,1,0-29.09l126.11-3.64A18,18,0,0,1,2529.56,1057.53Z"/><path class="cls-9" d="M2509.08,1278a17.81,17.81,0,0,1-4.62,12.95l-.73.8-27.45,29.89c-.55.91-1.09,1.82-1.6,2.76-2.73,5-1.75,8.44,1.35,11.27l14.33.8a14.57,14.57,0,0,1,0,29.09l-65.74,3.64a17.76,17.76,0,0,1-14.11-29.71l.73-.76,30.29-33c1.67-2.44,3.85-5.56,3.27-7.53-.51-1.71-2.47-2.73-4.73-3.35l-15.45-.87a14.57,14.57,0,0,1,0-29.09l65.74-3.64A17.8,17.8,0,0,1,2509.08,1278Z"/><path class="cls-9" d="M2450,710.37a32,32,0,1,1-45.05,3.6A32,32,0,0,1,2450,710.37Z"/><path class="cls-9" d="M2380.87,791.5a32,32,0,1,1-45.09,3.64A32,32,0,0,1,2380.87,791.5Z"/><path class="cls-9" d="M2362.94,636.27a32,32,0,1,1-45.05,3.64A32,32,0,0,1,2362.94,636.27Z"/><path class="cls-9" d="M2311.78,872.66a32,32,0,1,1-45.09,3.6A32,32,0,0,1,2311.78,872.66Z"/><path class="cls-9" d="M2293.85,717.43a32,32,0,1,1-45.05,3.6A32,32,0,0,1,2293.85,717.43Z"/><path class="cls-9" d="M2276,562.2a32,32,0,1,1-45.09,3.6A31.94,31.94,0,0,1,2276,562.2Z"/><path class="cls-9" d="M2242.66,953.82a32,32,0,1,1-45.05,3.6A31.94,31.94,0,0,1,2242.66,953.82Z"/><path class="cls-9" d="M2224.77,798.59a32,32,0,1,1-45.09,3.6A31.93,31.93,0,0,1,2224.77,798.59Z"/><path class="cls-9" d="M2217,1230a13.52,13.52,0,0,1,3.27,11.53,103.81,103.81,0,0,1-6,19.24,172.86,172.86,0,0,1-8.51,17.74,152.45,152.45,0,0,1-10.55,16.62,92.81,92.81,0,0,1-13.42,15,13.53,13.53,0,0,1-19.09-1.31,13.7,13.7,0,0,1-3.13-11.13,89.81,89.81,0,0,1,5.82-19.27,144.59,144.59,0,0,1,8.65-17.67,173.79,173.79,0,0,1,10.69-16.58,107.52,107.52,0,0,1,13.27-15.09A13.4,13.4,0,0,1,2217,1230Z"/><path class="cls-9" d="M2206.84,643.32a32,32,0,1,1-45.05,3.64A32,32,0,0,1,2206.84,643.32Z"/><path class="cls-9" d="M2196.62,2315.89a12.86,12.86,0,0,1,0,25.45c-14.94,2.11-29.89,3.24-44.8,4.07s-29.89,1.2-44.83,1.31-29.89-.22-44.83-.95a425.54,425.54,0,0,1-44.8-4.44,12.89,12.89,0,0,1,0-25.45,416.07,416.07,0,0,1,44.8-4.44c14.94-.73,29.89-1.16,44.83-.95s29.89.44,44.83,1.31S2181.68,2313.74,2196.62,2315.89Z"/><path class="cls-9" d="M2188.95,488.09a32,32,0,1,1-45.05,3.64A32,32,0,0,1,2188.95,488.09Z"/><path class="cls-9" d="M2173.57,1034.95a32,32,0,1,1-45.09,3.64A32,32,0,0,1,2173.57,1034.95Z"/><path class="cls-9" d="M2155.68,879.72a32,32,0,1,1-45.09,3.64A32,32,0,0,1,2155.68,879.72Z"/><path class="cls-9" d="M2137.75,724.48a32,32,0,1,1-45.05,3.64A32,32,0,0,1,2137.75,724.48Z"/><path class="cls-9" d="M2119.86,569.25a32,32,0,1,1-45.09,3.6A32,32,0,0,1,2119.86,569.25Z"/><path class="cls-9" d="M2104.48,1116.11a32,32,0,1,1-45.09,3.6A32,32,0,0,1,2104.48,1116.11Z"/><path class="cls-9" d="M2101.93,414a32,32,0,1,1-45.05,3.6A31.94,31.94,0,0,1,2101.93,414Z"/><path class="cls-9" d="M2086.55,960.88a32,32,0,1,1-45.05,3.6A32,32,0,0,1,2086.55,960.88Z"/><path class="cls-9" d="M2068.66,805.64a32,32,0,1,1-45.09,3.6A31.94,31.94,0,0,1,2068.66,805.64Z"/><path class="cls-9" d="M2050.73,650.41a32,32,0,1,1-45.05,3.6A31.94,31.94,0,0,1,2050.73,650.41Z"/><path class="cls-9" d="M2032.84,495.18a32,32,0,1,1-45.05,3.6A31.93,31.93,0,0,1,2032.84,495.18Z"/><path class="cls-9" d="M2017.46,1042a32,32,0,1,1-45.09,3.6A31.93,31.93,0,0,1,2017.46,1042Z"/><path class="cls-9" d="M1999.57,886.77a32,32,0,1,1-45.09,3.64A32,32,0,0,1,1999.57,886.77Z"/><path class="cls-9" d="M1995.5,1530.2a12.73,12.73,0,0,1-21.13,14.15l-.18-.18c-6.47-8.76-14.76-16.94-23.49-25.85-4.36-4.44-8.91-9.13-13.24-14.07-4-4.55-8.11-9.05-12.22-13.45-8.15-8.87-16.44-17.34-25.2-25.42-9-8.4-17.82-16.62-26.84-24.22-2.25-1.89-4.55-3.75-6.84-5.56l-7-5.42-14.73-11.56c-4.76-3.75-9.45-7.38-14.15-10.73-2.36-1.67-4.69-3.27-7.05-4.84s-4.87-3.09-6.76-4.15c-8.36-4.73-19.31-8.11-31.64-12.44-3.05-1.09-6.22-2.29-9.45-3.6s-6.73-2.95-9.27-4.15l-16.47-7.64a345,345,0,0,0-32.76-13.05c-11.2-3.82-22.62-7-34.22-10.07-11.38-2.87-24-5.82-35.56-8.58-5.85-1.35-11.6-2.55-17.27-3.6s-11.05-1.75-17.6-2.62c-12.4-1.71-24.29-3.45-35.78-4.4-5.75-.51-11.27-.62-17.42-.69s-11.67,0-17.89.18-12.91.22-19.24.07-12.62-.36-19-.73c-13.13-.73-24.47-2-36.73-2.4a12.74,12.74,0,0,1-.15-25.45h.15c6.25-.29,12.62-.47,19-.51s12.4.18,18.36.11,12.07-.25,18.07-.51,11.78-.62,17.85-1.2,12.8-.95,19.16-1.16c6.18-.22,13-.36,19.64-.11,13.2.4,25.85,2,38,3.2,5.75.58,12.76,1.2,19.2,2.22s12.87,2.22,19.13,3.49c12.51,2.73,24,5.16,36.69,8.07,12.4,2.95,24.8,6.44,37.05,10.47a379.06,379.06,0,0,1,36.18,14.15c5.85,2.58,11.56,5.27,17.2,8,3,1.45,5.05,2.44,7.6,3.49s5.09,2,7.85,3.05c10.91,4,23.85,7.75,37.09,15.27,3.45,2,6,3.75,8.91,5.67s5.53,3.89,8.15,5.85c5.27,4,10.25,8,15.13,12l14.25,11.67c2.22,1.78,5,4.11,7.42,6.15s4.95,4.25,7.35,6.44c9.6,8.69,18.58,17.6,27.27,26.47,9,9.13,17.6,18.8,25.67,28.54,4,4.91,7.93,9.89,11.78,14.87,3.49,4.58,7.24,9,11.27,13.71C1979.61,1508.31,1988.34,1518.28,1995.5,1530.2Z"/><path class="cls-9" d="M1981.65,731.54a32,32,0,1,1-45.05,3.64A32,32,0,0,1,1981.65,731.54Z"/><path class="cls-9" d="M1963.76,576.31a32,32,0,1,1-45.09,3.64A32,32,0,0,1,1963.76,576.31Z"/><path class="cls-9" d="M1930.45,967.93a32,32,0,1,1-45.05,3.64A32,32,0,0,1,1930.45,967.93Z"/><path class="cls-9" d="M1912.56,812.7a32,32,0,1,1-45.09,3.6A32,32,0,0,1,1912.56,812.7Z"/><path class="cls-9" d="M1907.47,2315.89a13.3,13.3,0,0,1,8.95,16.51,13.51,13.51,0,0,1-8.95,8.95,126.25,126.25,0,0,1-21.34,4.11,209.43,209.43,0,0,1-21.31,1.31,166.88,166.88,0,0,1-21.31-1,99.18,99.18,0,0,1-21.34-4.44,13.45,13.45,0,0,1,0-25.45,101.52,101.52,0,0,1,21.34-4.47,166.86,166.86,0,0,1,21.31-.95,199.47,199.47,0,0,1,21.31,1.31A126.25,126.25,0,0,1,1907.47,2315.89Z"/><path class="cls-9" d="M1894.63,657.47a32,32,0,1,1-45.05,3.6A31.94,31.94,0,0,1,1894.63,657.47Z"/><path class="cls-9" d="M1857.25,440.89a13,13,0,0,1,5.2,13.6,293.71,293.71,0,0,1-10.25,33.27c-3.85,10.87-8.25,21.53-12.87,32.07s-9.6,20.94-15.05,31.13a263.82,263.82,0,0,1-18,29.78A13,13,0,0,1,1783,570.42a261.75,261.75,0,0,1,10.07-33.34c3.89-10.87,8.33-21.53,13.05-32s9.75-20.91,15.24-31.05a294.69,294.69,0,0,1,17.85-29.89A13,13,0,0,1,1857.25,440.89Z"/><path class="cls-9" d="M1843.43,893.86a32,32,0,1,1-45.05,3.6A31.94,31.94,0,0,1,1843.43,893.86Z"/><path class="cls-9" d="M1842.27,1515.22a12.8,12.8,0,0,1-17.85,18.14l0,0c-9.16-7.27-18-14.65-27.16-21.53-4.51-3.53-9.09-6.91-13.71-10.22-2.18-1.53-4.87-3.53-7.35-5.42l-7.31-5.67c-9.45-7.49-17.89-14.8-26.47-20-1.05-.62-2.11-1.35-3.16-1.93s-2.07-1.2-3.38-1.89l-7.45-4c-5-2.58-10.07-5-15.13-7.35s-10.18-4.62-15.34-6.69c-2.58-1.05-5.16-2.07-7.75-3l-3.56-1.27c-1.09-.4-2.29-.73-3.42-1.09-9.35-2.76-20.44-4-32.36-5.85l-9.13-1.45c-3.09-.51-6.33-1.16-9.16-1.78l-17.2-3.75a302.64,302.64,0,0,0-32.94-5.56h-.22a12.79,12.79,0,0,1,.15-25.45c12.8-1.2,25.56-.44,37.71.73,6.07.58,12,1.35,17.82,2l8.36.91,8.47.73c11.53.87,24.11,1.75,37.71,5,1.71.44,3.38.84,5.09,1.38s3.45,1.13,4.84,1.6q4.47,1.58,8.84,3.27c5.85,2.25,11.6,4.69,17.31,7.27s11.24,5.42,16.73,8.29l8.15,4.51c1.27.69,2.76,1.56,4.29,2.51s2.91,1.82,4.36,2.73c11.27,7.78,20.54,16.29,29.05,24.18l6.29,5.71,6.51,5.64c4.65,4.07,9.2,8.25,13.64,12.47A358.26,358.26,0,0,1,1842.27,1515.22Z"/><path class="cls-9" d="M1825.54,738.63a32,32,0,1,1-45.05,3.6A31.93,31.93,0,0,1,1825.54,738.63Z"/><path class="cls-9" d="M1756.45,819.75a32,32,0,1,1-45.09,3.64A32,32,0,0,1,1756.45,819.75Z"/><path class="cls-9" d="M1471,665.65a139.43,139.43,0,0,1-.91,18.29,127,127,0,0,1-3.2,18,79.9,79.9,0,0,1-6.44,17.64,13.66,13.66,0,0,1-18.44,5.75,13.84,13.84,0,0,1-6.87-8.69A80.81,80.81,0,0,1,1433,698a127.66,127.66,0,0,1,1.05-18.29,153.54,153.54,0,0,1,3.35-18A94.39,94.39,0,0,1,1443.7,644a13.51,13.51,0,0,1,25.27,3A91.26,91.26,0,0,1,1471,665.65Z"/><path class="cls-9" d="M1393.26,1300.14a13.32,13.32,0,0,1,8.84,16.62,13.5,13.5,0,0,1-8.84,8.84,119.19,119.19,0,0,1-22.73,4.33,198.17,198.17,0,0,1-22.73,1.13,226.61,226.61,0,0,1-22.73-1.24,131.34,131.34,0,0,1-22.73-4.22,13.27,13.27,0,0,1-9-16.44,13.43,13.43,0,0,1,9-9,131.34,131.34,0,0,1,22.73-4.22,226.61,226.61,0,0,1,22.73-1.24,198.17,198.17,0,0,1,22.73,1.13A119.19,119.19,0,0,1,1393.26,1300.14Z"/><path class="cls-9" d="M1389.63,2315.89a14.23,14.23,0,0,1,0,25.45,49,49,0,0,1-12.65,4.11,75.52,75.52,0,0,1-12.69,1.31,59.42,59.42,0,0,1-12.65-1,39.55,39.55,0,0,1-12.69-4.44,14.69,14.69,0,0,1-5.42-20,14.88,14.88,0,0,1,5.42-5.42,40.56,40.56,0,0,1,12.69-4.47,59.38,59.38,0,0,1,12.65-.95,71.92,71.92,0,0,1,12.69,1.31A49,49,0,0,1,1389.63,2315.89Z"/><path class="cls-9" d="M1052.07,992.88a189.82,189.82,0,0,1,.18,27.27c-.51,9-1.45,18-2.73,26.87s-2.91,17.74-5,26.51a167.65,167.65,0,0,1-8.29,26,13.15,13.15,0,0,1-25.16-3.75,163.4,163.4,0,0,1-.36-27.31c.51-9,1.53-17.93,2.91-26.84s3.05-17.71,5.16-26.47a196,196,0,0,1,8.11-26.07,13.12,13.12,0,0,1,25.2,3.75Z"/><path class="cls-9" d="M895.1,498.89a13,13,0,0,1-15.34,20.29,256.19,256.19,0,0,1-27.64-15.6q-13.31-8.56-25.89-18t-24.47-19.82a230,230,0,0,1-22.47-22.47A13,13,0,0,1,794.59,423a228.64,228.64,0,0,1,27.78,15.49c8.87,5.67,17.42,11.78,25.74,18.14s16.51,13,24.4,20A256.31,256.31,0,0,1,895.1,498.89Z"/><path class="cls-9" d="M790,2252a13,13,0,0,1-21.64,13.38,225.93,225.93,0,0,1-20.29-24.44c-6.22-8.51-12-17.27-17.49-26.22s-10.69-18.07-15.53-27.42a260.43,260.43,0,0,1-13-29,13,13,0,0,1,21.64-13.38,252.82,252.82,0,0,1,20.18,24.54q9.27,12.76,17.6,26.11t15.67,27.31A222.08,222.08,0,0,1,790,2252Z"/><path class="cls-9" d="M708.52,2293.74a12.83,12.83,0,0,1-21.64,13.38c-11.05-13.42-21.13-27.45-30.91-41.67-4.95-7.05-9.56-14.36-14.36-21.53l-13.85-21.82c-9-14.73-17.85-29.53-26.18-44.62s-16.47-30.36-23.64-46.18a12.84,12.84,0,0,1,21.64-13.42c11,13.49,21.05,27.53,30.8,41.74s19.13,28.73,28.29,43.31L672,2225.06c4.29,7.49,8.76,14.87,12.87,22.47C693.32,2262.58,701.39,2277.89,708.52,2293.74Z"/><path class="cls-9" d="M676.45,1903.68a12.86,12.86,0,0,1,0,25.45c-14.94,2.11-29.89,3.24-44.83,4.07s-29.89,1.2-44.8,1.31-29.89-.22-44.83-.95a425.26,425.26,0,0,1-44.83-4.44,12.89,12.89,0,0,1,0-25.45,415.82,415.82,0,0,1,44.83-4.44c14.94-.73,29.89-1.16,44.83-.95s29.85.44,44.8,1.31S661.5,1901.54,676.45,1903.68Z"/><path class="cls-9" d="M555.11,1819a13.14,13.14,0,0,1,0,25.45,181.16,181.16,0,0,1-25,4.11c-8.33.8-16.69,1.2-25,1.31a230.19,230.19,0,0,1-25-1,140,140,0,0,1-25-4.44,13.26,13.26,0,0,1,0-25.45,137,137,0,0,1,25-4.47,239.77,239.77,0,0,1,25-1c8.33.11,16.69.51,25,1.31A176,176,0,0,1,555.11,1819Z"/><path class="cls-9" d="M549,861.35a12.94,12.94,0,0,1-6.62,24.58,317.36,317.36,0,0,1-35.89-5.38c-11.82-2.25-23.53-5.05-35.13-8.11S448.24,866,436.86,862a289.5,289.5,0,0,1-33.67-13.56,13,13,0,0,1,6.62-24.58,285.88,285.88,0,0,1,35.93,5.2c11.85,2.25,23.53,5.13,35.09,8.29s23.13,6.62,34.47,10.58A320.85,320.85,0,0,1,549,861.35Z"/><path class="cls-9" d="M446,1903.68a13.57,13.57,0,0,1,0,25.45,85.08,85.08,0,0,1-17.27,4.11,138.05,138.05,0,0,1-17.27,1.31,110.09,110.09,0,0,1-17.27-1,67.16,67.16,0,0,1-17.27-4.44,13.8,13.8,0,0,1,0-25.45,68.78,68.78,0,0,1,17.27-4.47,110.05,110.05,0,0,1,17.27-.95,131.49,131.49,0,0,1,17.27,1.31A85.08,85.08,0,0,1,446,1903.68Z"/><path class="cls-9" d="M407,545.87a13.41,13.41,0,0,1-23.49,9.71,99.86,99.86,0,0,1-12-17.45,166.27,166.27,0,0,1-8.91-18.73,192.35,192.35,0,0,1-6.76-19.64,113.62,113.62,0,0,1-4-20.73,13.31,13.31,0,0,1,12.15-14.44,13.5,13.5,0,0,1,11.38,4.69,115.49,115.49,0,0,1,11.78,17.53,196.34,196.34,0,0,1,9.05,18.69A166,166,0,0,1,403.11,525,102.92,102.92,0,0,1,407,545.87Z"/><path class="cls-9" d="M336.57,1352.9a13.06,13.06,0,0,1,2.4,14A264.45,264.45,0,0,1,324.21,1395q-8.13,13.53-17.2,26.4c-6,8.62-12.33,17-19.05,25.09a225.15,225.15,0,0,1-21.78,23.16A13,13,0,0,1,245.41,1455,222.34,222.34,0,0,1,260,1426.75c5.42-9.05,11.24-17.78,17.34-26.33s12.47-16.87,19.2-25a260.31,260.31,0,0,1,21.64-23.27A13,13,0,0,1,336.57,1352.9Z"/></g></svg>