<?xml version="1.0" standalone="no"?><!DOCTYPE svg PUBLIC "-//W3C//DTD SVG 1.1//EN" "http://www.w3.org/Graphics/SVG/1.1/DTD/svg11.dtd"><svg t="1632410283251" class="icon" viewBox="0 0 1024 1024" version="1.1" xmlns="http://www.w3.org/2000/svg" p-id="12268" xmlns:xlink="http://www.w3.org/1999/xlink" width="200" height="200"><defs><style type="text/css"></style></defs><path d="M886.786268 386.409745l-17.009967-2.551495a267.623477 267.623477 0 0 1-229.634551-229.351052l-2.267996-17.009967-17.293466 0a290.586932 290.586932 0 0 0-226.799557 85.049834l-5.38649 5.669989-12.473975 149.687708 41.107419-41.10742a193.913621 193.913621 0 0 1 135.229236-56.699889 243.242525 243.242525 0 0 0 12.473976 40.82392 22.112957 22.112957 0 0 0-9.071982 5.10299L18.710963 859.853821C-13.324474 891.889258 3.968992 954.542636 11.339978 981.475083a23.813953 23.813953 0 0 1 0 3.401993 21.545958 21.545958 0 0 0 6.236988 15.308971l5.10299 5.10299 6.520487 6.236987 2.551495 0a22.112957 22.112957 0 0 0 5.953488-1e-8l3.685493 1e-8a264.221484 264.221484 0 0 0 66.905869 11.339978 75.127353 75.127353 0 0 0 54.715394-18.710963l537.51495-534.963455a22.112957 22.112957 0 0 0 5.10299-9.071983 219.712071 219.712071 0 0 0 40.82392 12.473976 194.48062 194.48062 0 0 1-56.699889 135.512735l-40.82392001 41.10742 149.40420801-12.757475 5.669989-5.38649a290.019934 290.019934 0 0 0 85.04983399-226.799557zM134.378738 975.238095c-6.803987 6.803987-26.081949 11.623477-80.230344-3.68549299-15.025471-54.148394-10.20598-73.426357-3.685493-79.94684301l532.128461-535.530454a293.138427 293.138427 0 0 0 23.813954 32.885935 9.922481 9.922481 0 0 0-3.685493 2.267996l-60.101883 60.101882a21.262458 21.262458 0 0 0 0 30.33444101 21.829457 21.829457 0 0 0 15.025471 6.23698799 22.396456 22.396456 0 0 0 15.025471-5.953488l60.101882-60.385382a8.221484 8.221484 0 0 0 2.267996-3.68549301 235.58804 235.58804 0 0 0 32.885935 23.81395301zM779.339978 595.348837l-28.349945 1.98449601A234.170543 234.170543 0 0 0 788.128461 453.599114l0-17.009967-17.009967-2.267995A208.939092 208.939092 0 0 1 590.529347 255.149502l-2.551495-17.009967L552.82392 238.139535A235.871539 235.871539 0 0 0 425.249169 271.875969l2.267996-26.932447a247.211517 247.211517 0 0 1 173.501661-67.189369 310.431894 310.431894 0 0 0 245.227021 245.51052A247.495017 247.495017 0 0 1 779.339978 595.348837z" fill="#2c2c2c" p-id="12269"></path><path d="M1017.763012 94.688815L929.311185 6.236988a21.262458 21.262458 0 0 0-30.050941 0 20.978959 20.978959 0 0 0 0 30.050941l28.349944 28.34994499-170.09966801 170.09966801-11.05647799-11.056479-56.699889-56.699889a21.262458 21.262458 0 0 0-30.050941 30.050941l56.699889 56.699889 11.056478 11.056479-25.231451 25.231451 30.334441 30.050941 24.947951-25.231451 11.056479 11.339978 50.746401 51.0299a20.128461 20.128461 0 0 0 15.02547 6.236988 20.978959 20.978959 0 0 0 16.159469-6.236988 21.262458 21.262458 0 0 0 0-30.050941l-51.0299-49.612403-11.056479-11.339978 170.099668-170.099668 28.349945 28.349945a22.396456 22.396456 0 0 0 15.02547 6.236988 21.545958 21.545958 0 0 0 15.025471-36.571429z" fill="#2c2c2c" p-id="12270"></path></svg>